<?xml version="1.0" encoding="windows-1252" standalone="no"?>
<svg xmlns="http://www.w3.org/2000/svg" xmlns:xlink="http://www.w3.org/1999/xlink" contentStyleType="text/css" height="1431px" preserveAspectRatio="none" style="width:1965px;height:1431px;background:#FFFFFF;" version="1.1" viewBox="0 0 1965 1431" width="1965px" zoomAndPan="magnify"><defs/><g><text fill="#000000" font-family="Verdana" font-size="22" font-weight="bold" lengthAdjust="spacing" textLength="414" x="768" y="35.4209">FB_StateMachine State Diagram</text><path d="M24.5,58.6094 L1939.5,58.6094 A12.5,12.5 0 0 1 1952,71.1094 L1952,84.9063 L12,84.9063 L12,71.1094 A12.5,12.5 0 0 1 24.5,58.6094 " fill="#FFFFFF" style="stroke:#FFFFFF;stroke-width:1.0;"/><path d="M12,84.9063 L1952,84.9063 L1952,1405.1982 A12.5,12.5 0 0 1 1939.5,1417.6982 L24.5,1417.6982 A12.5,12.5 0 0 1 12,1405.1982 L12,84.9063 " fill="#FFFFFF" style="stroke:#FFFFFF;stroke-width:1.0;"/><rect fill="none" height="1359.0889" rx="12.5" ry="12.5" style="stroke:#000000;stroke-width:1.0;" width="1940" x="12" y="58.6094"/><line style="stroke:#000000;stroke-width:1.0;" x1="12" x2="1952" y1="84.9063" y2="84.9063"/><text fill="#000000" font-family="Verdana" font-size="14" lengthAdjust="spacing" textLength="124" x="920" y="76.6045">FB_StateMachine</text><path d="M36.5,96.9063 L1930.5,96.9063 A12.5,12.5 0 0 1 1943,109.4063 L1943,123.2031 L24,123.2031 L24,109.4063 A12.5,12.5 0 0 1 36.5,96.9063 " fill="#84B1F5" style="stroke:#84B1F5;stroke-width:1.0;"/><path d="M24,123.2031 L1943,123.2031 L1943,1394.1982 A12.5,12.5 0 0 1 1930.5,1406.6982 L36.5,1406.6982 A12.5,12.5 0 0 1 24,1394.1982 L24,123.2031 " fill="#FFFFFF" style="stroke:#FFFFFF;stroke-width:1.0;"/><rect fill="none" height="1309.792" rx="12.5" ry="12.5" style="stroke:#000000;stroke-width:1.0;" width="1919" x="24" y="96.9063"/><line style="stroke:#000000;stroke-width:1.0;" x1="24" x2="1943" y1="123.2031" y2="123.2031"/><text fill="#000000" font-family="Verdana" font-size="14" lengthAdjust="spacing" textLength="126" x="920.5" y="114.9014">eOuterLoopState</text><!--cluster eOuterLoopState_Setup--><g id="cluster_eOuterLoopState_Setup"><path d="M145.5,135.2031 L1669.5,135.2031 A12.5,12.5 0 0 1 1682,147.7031 L1682,156.5 L133,156.5 L133,147.7031 A12.5,12.5 0 0 1 145.5,135.2031 " fill="#ADD8E6" style="stroke:#ADD8E6;stroke-width:1.0;"/><path d="M133,156.5 L1682,156.5 L1682,308.7031 A12.5,12.5 0 0 1 1669.5,321.2031 L145.5,321.2031 A12.5,12.5 0 0 1 133,308.7031 L133,156.5 " fill="#FFFFFF" style="stroke:#FFFFFF;stroke-width:1.0;"/><rect fill="none" height="186" rx="12.5" ry="12.5" style="stroke:#000000;stroke-width:1.0;" width="1549" x="133" y="135.2031"/><line style="stroke:#000000;stroke-width:1.0;" x1="133" x2="1682" y1="156.5" y2="156.5"/><text fill="#000000" font-family="Verdana" font-size="14" lengthAdjust="spacing" textLength="176" x="819.5" y="153.1982">eOuterLoopState_Setup</text></g><!--cluster eOuterLoopState_Operational--><g id="cluster_eOuterLoopState_Operational"><path d="M382,371.2031 L1921.5,371.2031 A12.5,12.5 0 0 1 1934,383.7031 L1934,392.5 L369.5,392.5 L369.5,383.7031 A12.5,12.5 0 0 1 382,371.2031 " fill="#ADD8E6" style="stroke:#ADD8E6;stroke-width:1.0;"/><path d="M369.5,392.5 L1934,392.5 L1934,645.7031 A12.5,12.5 0 0 1 1921.5,658.2031 L382,658.2031 A12.5,12.5 0 0 1 369.5,645.7031 L369.5,392.5 " fill="#FFFFFF" style="stroke:#FFFFFF;stroke-width:1.0;"/><rect fill="none" height="287" rx="12.5" ry="12.5" style="stroke:#000000;stroke-width:1.0;" width="1564.5" x="369.5" y="371.2031"/><line style="stroke:#000000;stroke-width:1.0;" x1="369.5" x2="1934" y1="392.5" y2="392.5"/><text fill="#000000" font-family="Verdana" font-size="14" lengthAdjust="spacing" textLength="218" x="1042.75" y="389.1982">eOuterLoopState_Operational</text></g><!--cluster eOuterLoopState_DisablingInactive--><g id="cluster_eOuterLoopState_DisablingInactive"><path d="M777.5,1069.2031 L1387,1069.2031 A12.5,12.5 0 0 1 1399.5,1081.7031 L1399.5,1090.5 L765,1090.5 L765,1081.7031 A12.5,12.5 0 0 1 777.5,1069.2031 " fill="#ADD8E6" style="stroke:#ADD8E6;stroke-width:1.0;"/><path d="M765,1090.5 L1399.5,1090.5 L1399.5,1184.7031 A12.5,12.5 0 0 1 1387,1197.2031 L777.5,1197.2031 A12.5,12.5 0 0 1 765,1184.7031 L765,1090.5 " fill="#FFFFFF" style="stroke:#FFFFFF;stroke-width:1.0;"/><rect fill="none" height="128" rx="12.5" ry="12.5" style="stroke:#000000;stroke-width:1.0;" width="634.5" x="765" y="1069.2031"/><line style="stroke:#000000;stroke-width:1.0;" x1="765" x2="1399.5" y1="1090.5" y2="1090.5"/><text fill="#000000" font-family="Verdana" font-size="14" lengthAdjust="spacing" textLength="256" x="954.25" y="1087.1982">eOuterLoopState_DisablingInactive</text></g><!--cluster eOuterLoopState_Inactive--><g id="cluster_eOuterLoopState_Inactive"><path d="M1061.5,886.2031 L1921.5,886.2031 A12.5,12.5 0 0 1 1934,898.7031 L1934,907.5 L1049,907.5 L1049,898.7031 A12.5,12.5 0 0 1 1061.5,886.2031 " fill="#ADD8E6" style="stroke:#ADD8E6;stroke-width:1.0;"/><path d="M1049,907.5 L1934,907.5 L1934,1006.7031 A12.5,12.5 0 0 1 1921.5,1019.2031 L1061.5,1019.2031 A12.5,12.5 0 0 1 1049,1006.7031 L1049,907.5 " fill="#FFFFFF" style="stroke:#FFFFFF;stroke-width:1.0;"/><rect fill="none" height="133" rx="12.5" ry="12.5" style="stroke:#000000;stroke-width:1.0;" width="885" x="1049" y="886.2031"/><line style="stroke:#000000;stroke-width:1.0;" x1="1049" x2="1934" y1="907.5" y2="907.5"/><text fill="#000000" font-family="Verdana" font-size="14" lengthAdjust="spacing" textLength="190" x="1396.5" y="904.1982">eOuterLoopState_Inactive</text></g><!--cluster eOuterLoopState_DisablingError--><g id="cluster_eOuterLoopState_DisablingError"><path d="M777.5,1247.2031 L1387,1247.2031 A12.5,12.5 0 0 1 1399.5,1259.7031 L1399.5,1268.5 L765,1268.5 L765,1259.7031 A12.5,12.5 0 0 1 777.5,1247.2031 " fill="#ADD8E6" style="stroke:#ADD8E6;stroke-width:1.0;"/><path d="M765,1268.5 L1399.5,1268.5 L1399.5,1362.7031 A12.5,12.5 0 0 1 1387,1375.2031 L777.5,1375.2031 A12.5,12.5 0 0 1 765,1362.7031 L765,1268.5 " fill="#FFFFFF" style="stroke:#FFFFFF;stroke-width:1.0;"/><rect fill="none" height="128" rx="12.5" ry="12.5" style="stroke:#000000;stroke-width:1.0;" width="634.5" x="765" y="1247.2031"/><line style="stroke:#000000;stroke-width:1.0;" x1="765" x2="1399.5" y1="1268.5" y2="1268.5"/><text fill="#000000" font-family="Verdana" font-size="14" lengthAdjust="spacing" textLength="235" x="964.75" y="1265.1982">eOuterLoopState_DisablingError</text></g><!--cluster eOuterLoopState_DisabledError--><g id="cluster_eOuterLoopState_DisabledError"><path d="M777.5,708.2031 L1387,708.2031 A12.5,12.5 0 0 1 1399.5,720.7031 L1399.5,729.5 L765,729.5 L765,720.7031 A12.5,12.5 0 0 1 777.5,708.2031 " fill="#ADD8E6" style="stroke:#ADD8E6;stroke-width:1.0;"/><path d="M765,729.5 L1399.5,729.5 L1399.5,823.7031 A12.5,12.5 0 0 1 1387,836.2031 L777.5,836.2031 A12.5,12.5 0 0 1 765,823.7031 L765,729.5 " fill="#FFFFFF" style="stroke:#FFFFFF;stroke-width:1.0;"/><rect fill="none" height="128" rx="12.5" ry="12.5" style="stroke:#000000;stroke-width:1.0;" width="634.5" x="765" y="708.2031"/><line style="stroke:#000000;stroke-width:1.0;" x1="765" x2="1399.5" y1="729.5" y2="729.5"/><text fill="#000000" font-family="Verdana" font-size="14" lengthAdjust="spacing" textLength="231" x="966.75" y="726.1982">eOuterLoopState_DisabledError</text></g><text fill="#000000" font-family="Verdana" font-size="14" lengthAdjust="spacing" textLength="50" x="197" y="340.1982">ERROR</text><ellipse cx="222" cy="321.2031" fill="#FF3333" rx="6" ry="6" style="stroke:#000000;stroke-width:1.5;"/><line style="stroke:#000000;stroke-width:1.5;" x1="226.3891" x2="218.6109" y1="325.5922" y2="317.814"/><line style="stroke:#000000;stroke-width:1.5;" x1="226.3891" x2="218.6109" y1="317.814" y2="325.5922"/><rect fill="#FFFFFF" height="40" rx="12.5" ry="12.5" style="stroke:#000000;stroke-width:1.0;" width="79" x="364" y="205.2031"/><text fill="#000000" font-family="Verdana" font-size="14" lengthAdjust="spacing" textLength="69" x="369" y="230.0498">Setup_0()</text><ellipse cx="167" cy="225.2031" fill="#FFFFFF" rx="10" ry="10" style="stroke:#000000;stroke-width:1.0;"/><rect fill="#FFFFFF" height="40" rx="12.5" ry="12.5" style="stroke:#000000;stroke-width:1.0;" width="63" x="767.5" y="205.2031"/><text fill="#000000" font-family="Verdana" font-size="14" lengthAdjust="spacing" textLength="53" x="772.5" y="230.0498">Setup()</text><g id="elem_eOuterLoopState_Setup_Node_2"><polygon fill="#FFFFFF" points="1083,213.2031,1095,225.2031,1083,237.2031,1071,225.2031,1083,213.2031" style="stroke:#000000;stroke-width:1.0;"/></g><rect fill="#FFFFFF" height="40" rx="12.5" ry="12.5" style="stroke:#000000;stroke-width:1.0;" width="62" x="1333.5" y="231.2031"/><text fill="#000000" font-family="Verdana" font-size="14" lengthAdjust="spacing" textLength="52" x="1338.5" y="256.0498">Reset()</text><ellipse cx="1647" cy="218.2031" fill="none" rx="11" ry="11" style="stroke:#000000;stroke-width:1.0;"/><ellipse cx="1647" cy="218.2031" fill="#FFFFFF" rx="6" ry="6" style="stroke:#000000;stroke-width:1.0;"/><text fill="#000000" font-family="Verdana" font-size="14" lengthAdjust="spacing" textLength="50" x="463" y="677.1982">ERROR</text><ellipse cx="488" cy="658.2031" fill="#FF3333" rx="6" ry="6" style="stroke:#000000;stroke-width:1.5;"/><line style="stroke:#000000;stroke-width:1.5;" x1="492.3891" x2="484.6109" y1="662.5922" y2="654.814"/><line style="stroke:#000000;stroke-width:1.5;" x1="492.3891" x2="484.6109" y1="654.814" y2="662.5922"/><rect fill="#FFFFFF" height="40" rx="12.5" ry="12.5" style="stroke:#000000;stroke-width:1.0;" width="102" x="748" y="498.2031"/><text fill="#000000" font-family="Verdana" font-size="14" lengthAdjust="spacing" textLength="92" x="753" y="523.0498">ReadStatus()</text><ellipse cx="403.5" cy="518.2031" fill="#FFFFFF" rx="10" ry="10" style="stroke:#000000;stroke-width:1.0;"/><g id="elem_eOuterLoopState_Operational_Node_1"><polygon fill="#FFFFFF" points="1083,506.2031,1095,518.2031,1083,530.2031,1071,518.2031,1083,506.2031" style="stroke:#000000;stroke-width:1.0;"/></g><g id="elem_eOuterLoopState_Operational_Node_2"><polygon fill="#FFFFFF" points="1647,525.2031,1659,537.2031,1647,549.2031,1635,537.2031,1647,525.2031" style="stroke:#000000;stroke-width:1.0;"/></g><ellipse cx="1899" cy="511.2031" fill="none" rx="11" ry="11" style="stroke:#000000;stroke-width:1.0;"/><ellipse cx="1899" cy="511.2031" fill="#FFFFFF" rx="6" ry="6" style="stroke:#000000;stroke-width:1.0;"/><g id="elem_eOuterLoopState_Operational_Node_3"><polygon fill="#FFFFFF" points="1364.5,475.2031,1376.5,487.2031,1364.5,499.2031,1352.5,487.2031,1364.5,475.2031" style="stroke:#000000;stroke-width:1.0;"/></g><rect fill="#FFFFFF" height="40" rx="12.5" ry="12.5" style="stroke:#000000;stroke-width:1.0;" width="114" x="1590" y="414.2031"/><text fill="#000000" font-family="Verdana" font-size="14" lengthAdjust="spacing" textLength="104" x="1595" y="439.0498">InnerLoopSM()</text><g id="elem_eOuterLoopState_Operational_Node_5"><polygon fill="#FFFFFF" points="1647,472.2031,1659,484.2031,1647,496.2031,1635,484.2031,1647,472.2031" style="stroke:#000000;stroke-width:1.0;"/></g><text fill="#000000" font-family="Verdana" font-size="14" lengthAdjust="spacing" textLength="50" x="870" y="1216.1982">ERROR</text><ellipse cx="895" cy="1197.2031" fill="#FF3333" rx="6" ry="6" style="stroke:#000000;stroke-width:1.5;"/><line style="stroke:#000000;stroke-width:1.5;" x1="899.3891" x2="891.6109" y1="1201.5922" y2="1193.814"/><line style="stroke:#000000;stroke-width:1.5;" x1="899.3891" x2="891.6109" y1="1193.814" y2="1201.5922"/><g id="elem_eOuterLoopState_DisablingInactive_Node_0"><polygon fill="#FFFFFF" points="1083,1125.2031,1095,1137.2031,1083,1149.2031,1071,1137.2031,1083,1125.2031" style="stroke:#000000;stroke-width:1.0;"/></g><ellipse cx="799" cy="1137.2031" fill="#FFFFFF" rx="10" ry="10" style="stroke:#000000;stroke-width:1.0;"/><ellipse cx="1364.5" cy="1137.2031" fill="none" rx="11" ry="11" style="stroke:#000000;stroke-width:1.0;"/><ellipse cx="1364.5" cy="1137.2031" fill="#FFFFFF" rx="6" ry="6" style="stroke:#000000;stroke-width:1.0;"/><text fill="#000000" font-family="Verdana" font-size="14" lengthAdjust="spacing" textLength="50" x="1115" y="1038.1982">ERROR</text><ellipse cx="1140" cy="1019.2031" fill="#FF3333" rx="6" ry="6" style="stroke:#000000;stroke-width:1.5;"/><line style="stroke:#000000;stroke-width:1.5;" x1="1144.3891" x2="1136.6109" y1="1023.5922" y2="1015.814"/><line style="stroke:#000000;stroke-width:1.5;" x1="1144.3891" x2="1136.6109" y1="1015.814" y2="1023.5922"/><g id="elem_eOuterLoopState_Inactive_Node_0"><polygon fill="#FFFFFF" points="1364.5,937.2031,1376.5,949.2031,1364.5,961.2031,1352.5,949.2031,1364.5,937.2031" style="stroke:#000000;stroke-width:1.0;"/></g><ellipse cx="1083" cy="949.2031" fill="#FFFFFF" rx="10" ry="10" style="stroke:#000000;stroke-width:1.0;"/><rect fill="#FFFFFF" height="40" rx="12.5" ry="12.5" style="stroke:#000000;stroke-width:1.0;" width="62" x="1616" y="929.2031"/><text fill="#000000" font-family="Verdana" font-size="14" lengthAdjust="spacing" textLength="52" x="1621" y="954.0498">Reset()</text><ellipse cx="1899" cy="949.2031" fill="none" rx="11" ry="11" style="stroke:#000000;stroke-width:1.0;"/><ellipse cx="1899" cy="949.2031" fill="#FFFFFF" rx="6" ry="6" style="stroke:#000000;stroke-width:1.0;"/><text fill="#000000" font-family="Verdana" font-size="14" lengthAdjust="spacing" textLength="50" x="870" y="1394.1982">ERROR</text><ellipse cx="895" cy="1375.2031" fill="#FF3333" rx="6" ry="6" style="stroke:#000000;stroke-width:1.5;"/><line style="stroke:#000000;stroke-width:1.5;" x1="899.3891" x2="891.6109" y1="1379.5922" y2="1371.814"/><line style="stroke:#000000;stroke-width:1.5;" x1="899.3891" x2="891.6109" y1="1371.814" y2="1379.5922"/><g id="elem_eOuterLoopState_DisablingError_Node_0"><polygon fill="#FFFFFF" points="1083,1295.2031,1095,1307.2031,1083,1319.2031,1071,1307.2031,1083,1295.2031" style="stroke:#000000;stroke-width:1.0;"/></g><ellipse cx="799" cy="1307.2031" fill="#FFFFFF" rx="10" ry="10" style="stroke:#000000;stroke-width:1.0;"/><ellipse cx="1364.5" cy="1307.2031" fill="none" rx="11" ry="11" style="stroke:#000000;stroke-width:1.0;"/><ellipse cx="1364.5" cy="1307.2031" fill="#FFFFFF" rx="6" ry="6" style="stroke:#000000;stroke-width:1.0;"/><text fill="#000000" font-family="Verdana" font-size="14" lengthAdjust="spacing" textLength="50" x="870" y="855.1982">ERROR</text><ellipse cx="895" cy="836.2031" fill="#FF3333" rx="6" ry="6" style="stroke:#000000;stroke-width:1.5;"/><line style="stroke:#000000;stroke-width:1.5;" x1="899.3891" x2="891.6109" y1="840.5922" y2="832.814"/><line style="stroke:#000000;stroke-width:1.5;" x1="899.3891" x2="891.6109" y1="832.814" y2="840.5922"/><g id="elem_eOuterLoopState_DisabledError_Node_0"><polygon fill="#FFFFFF" points="1083,756.2031,1095,768.2031,1083,780.2031,1071,768.2031,1083,756.2031" style="stroke:#000000;stroke-width:1.0;"/></g><ellipse cx="799" cy="768.2031" fill="#FFFFFF" rx="10" ry="10" style="stroke:#000000;stroke-width:1.0;"/><ellipse cx="1364.5" cy="768.2031" fill="none" rx="11" ry="11" style="stroke:#000000;stroke-width:1.0;"/><ellipse cx="1364.5" cy="768.2031" fill="#FFFFFF" rx="6" ry="6" style="stroke:#000000;stroke-width:1.0;"/><ellipse cx="45" cy="287.2031" fill="#FFFFFF" rx="10" ry="10" style="stroke:#000000;stroke-width:1.0;"/><!--link *start*eOuterLoopState to eOuterLoopState_Setup--><g id="link_*start*eOuterLoopState_eOuterLoopState_Setup"><path d="M55.0195,287.2031 C68.7552,287.2031 95.8545,287.2031 119.8354,287.2031 C122.833,287.2031 125.7818,287.2031 128.6498,287.2031 C130.0838,287.2031 125.4975,287.2031 126.887,287.2031 " fill="none" id="*start*eOuterLoopState-to-eOuterLoopState_Setup" style="stroke:#000000;stroke-width:1.0;"/><polygon fill="#000000" points="132.887,287.2031,123.887,283.2031,127.887,287.2031,123.887,291.2031,132.887,287.2031" style="stroke:#000000;stroke-width:1.0;"/><text fill="#000000" font-family="Verdana" font-size="13" lengthAdjust="spacing" textLength="42" x="74" y="283.27">START</text></g><!--link *start*eOuterLoopState_Setup to eOuterLoopState_Setup_Node_0--><g id="link_*start*eOuterLoopState_Setup_eOuterLoopState_Setup_Node_0"><path d="M177.193,225.2031 C207.846,225.2031 301.783,225.2031 357.709,225.2031 " fill="none" id="*start*eOuterLoopState_Setup-to-eOuterLoopState_Setup_Node_0" style="stroke:#000000;stroke-width:1.0;"/><polygon fill="#000000" points="363.709,225.2031,354.709,221.2031,358.709,225.2031,354.709,229.2031,363.709,225.2031" style="stroke:#000000;stroke-width:1.0;"/><text fill="#000000" font-family="Verdana" font-size="13" lengthAdjust="spacing" textLength="42" x="276" y="221.27">START</text></g><!--link eOuterLoopState_Setup_Node_3 to *end*eOuterLoopState_Setup--><g id="link_eOuterLoopState_Setup_Node_3_*end*eOuterLoopState_Setup"><path d="M1395.52,247.6731 C1457.56,240.3731 1591.4011,224.624 1630.0011,220.084 " fill="none" id="eOuterLoopState_Setup_Node_3-to-*end*eOuterLoopState_Setup" style="stroke:#000000;stroke-width:1.0;"/><polygon fill="#000000" points="1635.96,219.3831,1626.5544,216.4618,1630.9942,219.9672,1627.4889,224.407,1635.96,219.3831" style="stroke:#000000;stroke-width:1.0;"/><text fill="#000000" font-family="Verdana" font-size="13" lengthAdjust="spacing" textLength="58" x="1473.5" y="225.27">(bActive)</text></g><!--link eOuterLoopState_Setup_Node_2 to *end*eOuterLoopState_Setup--><g id="link_eOuterLoopState_Setup_Node_2_*end*eOuterLoopState_Setup"><path d="M1092.43,222.2131 C1114.64,214.6331 1176.69,195.2031 1230,195.2031 C1230,195.2031 1230,195.2031 1503.5,195.2031 C1553.87,195.2031 1607.1886,207.8523 1630.2686,213.9423 " fill="none" id="eOuterLoopState_Setup_Node_2-to-*end*eOuterLoopState_Setup" style="stroke:#000000;stroke-width:1.0;"/><polygon fill="#000000" points="1636.07,215.4731,1628.3884,209.3093,1631.2355,214.1975,1626.3473,217.0446,1636.07,215.4731" style="stroke:#000000;stroke-width:1.0;"/><text fill="#000000" font-family="Verdana" font-size="13" lengthAdjust="spacing" textLength="99" x="1315" y="191.27">(NOT (bActive))</text></g><!--link *start*eOuterLoopState_Operational to eOuterLoopState_Operational_Node_0--><g id="link_*start*eOuterLoopState_Operational_eOuterLoopState_Operational_Node_0"><path d="M413.839,518.2031 C458.764,518.2031 648.298,518.2031 741.816,518.2031 " fill="none" id="*start*eOuterLoopState_Operational-to-eOuterLoopState_Operational_Node_0" style="stroke:#000000;stroke-width:1.0;"/><polygon fill="#000000" points="747.816,518.2031,738.816,514.2031,742.816,518.2031,738.816,522.2031,747.816,518.2031" style="stroke:#000000;stroke-width:1.0;"/><text fill="#000000" font-family="Verdana" font-size="13" lengthAdjust="spacing" textLength="42" x="567" y="514.27">START</text></g><!--link eOuterLoopState_Operational_Node_2 to *end*eOuterLoopState_Operational--><g id="link_eOuterLoopState_Operational_Node_2_*end*eOuterLoopState_Operational"><path d="M1659.08,537.1411 C1689.78,536.8191 1778.45,534.8671 1851,523.2031 C1864.14,521.0911 1873.21,518.7291 1882.64,515.9181 " fill="none" id="eOuterLoopState_Operational_Node_2-to-*end*eOuterLoopState_Operational" style="stroke:#000000;stroke-width:1.0;"/><polygon fill="#000000" points="1888.39,514.2041,1878.6224,512.9418,1883.5984,515.6325,1880.9077,520.6085,1888.39,514.2041" style="stroke:#000000;stroke-width:1.0;"/><text fill="#000000" font-family="Verdana" font-size="13" lengthAdjust="spacing" textLength="67" x="1762.5" y="519.27">(Disable())</text></g><!--link eOuterLoopState_Operational_Node_2 to *end*eOuterLoopState_Operational--><g id="link_eOuterLoopState_Operational_Node_2_*end*eOuterLoopState_Operational"><path d="M1656.11,540.4411 C1684.27,551.1631 1779.92,583.2821 1851,555.2031 C1868.88,548.1401 1880.3615,535.5138 1888.3315,524.8338 " fill="none" id="eOuterLoopState_Operational_Node_2-to-*end*eOuterLoopState_Operational-1" style="stroke:#000000;stroke-width:1.0;"/><polygon fill="#000000" points="1891.92,520.0251,1883.3316,524.8458,1888.9296,524.0323,1889.7431,529.6304,1891.92,520.0251" style="stroke:#000000;stroke-width:1.0;"/><text fill="#000000" font-family="Verdana" font-size="13" lengthAdjust="spacing" textLength="108" x="1742" y="551.27">(NOT (Disable()))</text></g><!--link eOuterLoopState_Operational_Node_5 to *end*eOuterLoopState_Operational--><g id="link_eOuterLoopState_Operational_Node_5_*end*eOuterLoopState_Operational"><path d="M1656.05,480.9031 C1684.01,469.9541 1779.11,436.9641 1851,463.2031 C1870.28,470.2411 1882.066,485.2162 1889.546,497.0592 " fill="none" id="eOuterLoopState_Operational_Node_5-to-*end*eOuterLoopState_Operational" style="stroke:#000000;stroke-width:1.0;"/><polygon fill="#000000" points="1892.75,502.1321,1891.3259,492.3868,1890.08,497.9047,1884.562,496.6588,1892.75,502.1321" style="stroke:#000000;stroke-width:1.0;"/><text fill="#000000" font-family="Verdana" font-size="13" lengthAdjust="spacing" textLength="67" x="1762.5" y="449.27">(Disable())</text></g><!--link eOuterLoopState_Operational_Node_5 to *end*eOuterLoopState_Operational--><g id="link_eOuterLoopState_Operational_Node_5_*end*eOuterLoopState_Operational"><path d="M1658.11,485.2951 C1698.49,489.6561 1841.9647,505.1509 1882.0747,509.4829 " fill="none" id="eOuterLoopState_Operational_Node_5-to-*end*eOuterLoopState_Operational-1" style="stroke:#000000;stroke-width:1.0;"/><polygon fill="#000000" points="1888.04,510.1271,1879.5216,505.1838,1883.0689,509.5902,1878.6625,513.1376,1888.04,510.1271" style="stroke:#000000;stroke-width:1.0;"/><text fill="#000000" font-family="Verdana" font-size="13" lengthAdjust="spacing" textLength="108" x="1742" y="490.27">(NOT (Disable()))</text></g><!--link *start*eOuterLoopState_DisablingInactive to eOuterLoopState_DisablingInactive_Node_0--><g id="link_*start*eOuterLoopState_DisablingInactive_eOuterLoopState_DisablingInactive_Node_0"><path d="M809.195,1137.3611 C829.548,1137.7591 879.936,1139.0081 922,1142.2031 C930.026,1142.8131 931.963,1143.7581 940,1144.2031 C972.839,1146.0221 981.154,1145.8891 1014,1144.2031 C1034.623,1143.1441 1052.6798,1141.0625 1065.9398,1139.3435 " fill="none" id="*start*eOuterLoopState_DisablingInactive-to-eOuterLoopState_DisablingInactive_Node_0" style="stroke:#000000;stroke-width:1.0;"/><polygon fill="#000000" points="1071.89,1138.5721,1062.4504,1135.7624,1066.9315,1139.2149,1063.4789,1143.696,1071.89,1138.5721" style="stroke:#000000;stroke-width:1.0;"/><text fill="#000000" font-family="Verdana" font-size="13" lengthAdjust="spacing" textLength="42" x="956" y="1140.27">START</text></g><!--link eOuterLoopState_DisablingInactive_Node_0 to *end*eOuterLoopState_DisablingInactive--><g id="link_eOuterLoopState_DisablingInactive_Node_0_*end*eOuterLoopState_DisablingInactive"><path d="M1095.3,1137.2031 C1140.75,1137.2031 1303.79,1137.2031 1347.26,1137.2031 " fill="none" id="eOuterLoopState_DisablingInactive_Node_0-to-*end*eOuterLoopState_DisablingInactive" style="stroke:#000000;stroke-width:1.0;"/><polygon fill="#000000" points="1353.26,1137.2031,1344.26,1133.2031,1348.26,1137.2031,1344.26,1141.2031,1353.26,1137.2031" style="stroke:#000000;stroke-width:1.0;"/><text fill="#000000" font-family="Verdana" font-size="13" lengthAdjust="spacing" textLength="67" x="1197.5" y="1133.27">(Disable())</text></g><!--link *start*eOuterLoopState_Inactive to eOuterLoopState_Inactive_Node_0--><g id="link_*start*eOuterLoopState_Inactive_eOuterLoopState_Inactive_Node_0"><path d="M1093.3,949.2031 C1135.26,949.2031 1300.89,949.2031 1346.39,949.2031 " fill="none" id="*start*eOuterLoopState_Inactive-to-eOuterLoopState_Inactive_Node_0" style="stroke:#000000;stroke-width:1.0;"/><polygon fill="#000000" points="1352.39,949.2031,1343.39,945.2031,1347.39,949.2031,1343.39,953.2031,1352.39,949.2031" style="stroke:#000000;stroke-width:1.0;"/><text fill="#000000" font-family="Verdana" font-size="13" lengthAdjust="spacing" textLength="42" x="1210" y="945.27">START</text></g><!--link eOuterLoopState_Inactive_Node_1 to *end*eOuterLoopState_Inactive--><g id="link_eOuterLoopState_Inactive_Node_1_*end*eOuterLoopState_Inactive"><path d="M1678.16,949.2031 C1734.26,949.2031 1846.2,949.2031 1881.68,949.2031 " fill="none" id="eOuterLoopState_Inactive_Node_1-to-*end*eOuterLoopState_Inactive" style="stroke:#000000;stroke-width:1.0;"/><polygon fill="#000000" points="1887.68,949.2031,1878.68,945.2031,1882.68,949.2031,1878.68,953.2031,1887.68,949.2031" style="stroke:#000000;stroke-width:1.0;"/><text fill="#000000" font-family="Verdana" font-size="13" lengthAdjust="spacing" textLength="58" x="1767" y="945.27">(bActive)</text></g><!--link *start*eOuterLoopState_DisablingError to eOuterLoopState_DisablingError_Node_0--><g id="link_*start*eOuterLoopState_DisablingError_eOuterLoopState_DisablingError_Node_0"><path d="M809.063,1307.2031 C850.827,1307.2031 1018.649,1307.2031 1064.74,1307.2031 " fill="none" id="*start*eOuterLoopState_DisablingError-to-eOuterLoopState_DisablingError_Node_0" style="stroke:#000000;stroke-width:1.0;"/><polygon fill="#000000" points="1070.74,1307.2031,1061.74,1303.2031,1065.74,1307.2031,1061.74,1311.2031,1070.74,1307.2031" style="stroke:#000000;stroke-width:1.0;"/><text fill="#000000" font-family="Verdana" font-size="13" lengthAdjust="spacing" textLength="42" x="956" y="1303.27">START</text></g><!--link eOuterLoopState_DisablingError_Node_0 to *end*eOuterLoopState_DisablingError--><g id="link_eOuterLoopState_DisablingError_Node_0_*end*eOuterLoopState_DisablingError"><path d="M1095.3,1307.2031 C1140.75,1307.2031 1303.79,1307.2031 1347.26,1307.2031 " fill="none" id="eOuterLoopState_DisablingError_Node_0-to-*end*eOuterLoopState_DisablingError" style="stroke:#000000;stroke-width:1.0;"/><polygon fill="#000000" points="1353.26,1307.2031,1344.26,1303.2031,1348.26,1307.2031,1344.26,1311.2031,1353.26,1307.2031" style="stroke:#000000;stroke-width:1.0;"/><text fill="#000000" font-family="Verdana" font-size="13" lengthAdjust="spacing" textLength="67" x="1197.5" y="1303.27">(Disable())</text></g><!--link *start*eOuterLoopState_DisabledError to eOuterLoopState_DisabledError_Node_0--><g id="link_*start*eOuterLoopState_DisabledError_eOuterLoopState_DisabledError_Node_0"><path d="M809.063,768.2031 C850.827,768.2031 1018.649,768.2031 1064.74,768.2031 " fill="none" id="*start*eOuterLoopState_DisabledError-to-eOuterLoopState_DisabledError_Node_0" style="stroke:#000000;stroke-width:1.0;"/><polygon fill="#000000" points="1070.74,768.2031,1061.74,764.2031,1065.74,768.2031,1061.74,772.2031,1070.74,768.2031" style="stroke:#000000;stroke-width:1.0;"/><text fill="#000000" font-family="Verdana" font-size="13" lengthAdjust="spacing" textLength="42" x="956" y="764.27">START</text></g><!--link eOuterLoopState_DisabledError_Node_0 to *end*eOuterLoopState_DisabledError--><g id="link_eOuterLoopState_DisabledError_Node_0_*end*eOuterLoopState_DisabledError"><path d="M1095.3,768.2031 C1140.75,768.2031 1303.79,768.2031 1347.26,768.2031 " fill="none" id="eOuterLoopState_DisabledError_Node_0-to-*end*eOuterLoopState_DisabledError" style="stroke:#000000;stroke-width:1.0;"/><polygon fill="#000000" points="1353.26,768.2031,1344.26,764.2031,1348.26,768.2031,1344.26,772.2031,1353.26,768.2031" style="stroke:#000000;stroke-width:1.0;"/><text fill="#000000" font-family="Verdana" font-size="13" lengthAdjust="spacing" textLength="72" x="1195" y="764.27">(bErrorAck)</text></g><!--link eOuterLoopState_Setup_Node_0 to eOuterLoopState_Setup_Node_1--><g id="link_eOuterLoopState_Setup_Node_0_eOuterLoopState_Setup_Node_1"><path d="M443.307,225.2031 C521.447,225.2031 690.324,225.2031 761.242,225.2031 " fill="none" id="eOuterLoopState_Setup_Node_0-to-eOuterLoopState_Setup_Node_1" style="stroke:#000000;stroke-width:1.0;"/><polygon fill="#000000" points="767.242,225.2031,758.242,221.2031,762.242,225.2031,758.242,229.2031,767.242,225.2031" style="stroke:#000000;stroke-width:1.0;"/></g><!--link eOuterLoopState_Setup_Node_1 to eOuterLoopState_Setup_Node_2--><g id="link_eOuterLoopState_Setup_Node_1_eOuterLoopState_Setup_Node_2"><path d="M830.716,225.2031 C892.812,225.2031 1024.779,225.2031 1064.87,225.2031 " fill="none" id="eOuterLoopState_Setup_Node_1-to-eOuterLoopState_Setup_Node_2" style="stroke:#000000;stroke-width:1.0;"/><polygon fill="#000000" points="1070.87,225.2031,1061.87,221.2031,1065.87,225.2031,1061.87,229.2031,1070.87,225.2031" style="stroke:#000000;stroke-width:1.0;"/></g><!--link eOuterLoopState_Setup_Node_2 to eOuterLoopState_Setup_Node_3--><g id="link_eOuterLoopState_Setup_Node_2_eOuterLoopState_Setup_Node_3"><path d="M1094.28,226.1631 C1133.08,229.7731 1265.6158,242.0971 1327.3958,247.8471 " fill="none" id="eOuterLoopState_Setup_Node_2-to-eOuterLoopState_Setup_Node_3" style="stroke:#000000;stroke-width:1.0;"/><polygon fill="#000000" points="1333.37,248.4031,1324.7794,243.5863,1328.3915,247.9398,1324.038,251.5519,1333.37,248.4031" style="stroke:#000000;stroke-width:1.0;"/><text fill="#000000" font-family="Verdana" font-size="13" lengthAdjust="spacing" textLength="58" x="1202" y="231.27">(bActive)</text></g><!--link eOuterLoopState_Setup to eOuterLoopState_Operational--><g id="link_eOuterLoopState_Setup_eOuterLoopState_Operational"><path d="M181.3085,321.483 C181.3535,321.5901 181.3985,321.6973 181.4437,321.8046 C181.5339,322.0191 181.6245,322.2341 181.7153,322.4494 C182.0787,323.3106 182.4468,324.1773 182.8193,325.0484 C183.5644,326.7905 184.3271,328.5498 185.1049,330.3163 C188.2162,337.3819 191.569,344.5606 195,351.2031 C259.52,476.1301 242.142,545.8851 361.5,620.2031 C363.3821,621.375 365.4096,622.3217 367.5197,623.0806 C368.0473,623.2704 368.5799,623.4483 369.1168,623.6152 C369.1839,623.636 363.5121,621.9063 363.5793,621.9269 " fill="none" id="eOuterLoopState_Setup-to-eOuterLoopState_Operational" style="stroke:#000000;stroke-width:1.0;"/><polygon fill="#000000" points="369.3183,623.6772,361.8767,617.2257,364.5358,622.2186,359.5429,624.8777,369.3183,623.6772" style="stroke:#000000;stroke-width:1.0;"/><text fill="#000000" font-family="Verdana" font-size="13" lengthAdjust="spacing" textLength="58" x="268" y="520.27">(bActive)</text></g><!--link eOuterLoopState_Setup to eOuterLoopState_Inactive--><g id="link_eOuterLoopState_Setup_eOuterLoopState_Inactive"><path d="M170.2508,322.9686 C171.6612,344.3175 173.7332,374.1838 176.4635,409.6981 C181.9243,480.7269 190.0184,574.3481 200.7196,667.6081 C222.122,854.1281 253.9525,1039.2031 296,1039.2031 C296,1039.2031 296,1039.2031 978,1039.2031 C1003.227,1039.2031 1028.4145,1026.5336 1047.6828,1013.4683 C1047.9838,1013.2641 1043.3339,1016.4513 1043.632,1016.247 " fill="none" id="eOuterLoopState_Setup-to-eOuterLoopState_Inactive" style="stroke:#000000;stroke-width:1.0;"/><polygon fill="#000000" points="1048.5816,1012.8556,1038.8963,1014.643,1044.4569,1015.6817,1043.4182,1021.2424,1048.5816,1012.8556" style="stroke:#000000;stroke-width:1.0;"/><text fill="#000000" font-family="Verdana" font-size="13" lengthAdjust="spacing" textLength="99" x="538.5" y="1035.27">(NOT (bActive))</text></g><!--link eOuterLoopState_Operational_Node_0 to eOuterLoopState_Operational_Node_1--><g id="link_eOuterLoopState_Operational_Node_0_eOuterLoopState_Operational_Node_1"><path d="M850.091,518.2031 C917.832,518.2031 1028.374,518.2031 1064.79,518.2031 " fill="none" id="eOuterLoopState_Operational_Node_0-to-eOuterLoopState_Operational_Node_1" style="stroke:#000000;stroke-width:1.0;"/><polygon fill="#000000" points="1070.79,518.2031,1061.79,514.2031,1065.79,518.2031,1061.79,522.2031,1070.79,518.2031" style="stroke:#000000;stroke-width:1.0;"/></g><!--link eOuterLoopState_Operational_Node_1 to eOuterLoopState_Operational_Node_2--><g id="link_eOuterLoopState_Operational_Node_1_eOuterLoopState_Operational_Node_2"><path d="M1093.18,520.1291 C1116.12,524.7731 1177.9,536.2031 1230,536.2031 C1230,536.2031 1230,536.2031 1503.5,536.2031 C1552.49,536.2031 1604.9404,536.7333 1628.9104,537.0043 " fill="none" id="eOuterLoopState_Operational_Node_1-to-eOuterLoopState_Operational_Node_2" style="stroke:#000000;stroke-width:1.0;"/><polygon fill="#000000" points="1634.91,537.0721,1625.9558,532.9706,1629.9103,537.0156,1625.8654,540.9701,1634.91,537.0721" style="stroke:#000000;stroke-width:1.0;"/><text fill="#000000" font-family="Verdana" font-size="13" lengthAdjust="spacing" textLength="49" x="1340" y="532.27">(bError)</text></g><!--link eOuterLoopState_Operational to eOuterLoopState_DisabledError--><g id="link_eOuterLoopState_Operational_eOuterLoopState_DisabledError"><path d="M429.4522,658.4763 C429.5432,658.5834 429.6345,658.6906 429.7259,658.7978 C429.9087,659.0123 430.0923,659.2268 430.2766,659.4416 C433.2258,662.8769 436.3645,666.3445 439.658,669.7321 C446.2449,676.5074 453.4513,682.9631 461,688.2031 C573.218,766.0981 614.776,768.0031 748,798.2031 C753.2655,799.3966 758.9133,800.2466 764.4492,800.8495 C764.6222,800.8684 758.8287,800.2529 759.0015,800.2712 " fill="none" id="eOuterLoopState_Operational-to-eOuterLoopState_DisabledError" style="stroke:#000000;stroke-width:1.0;"/><polygon fill="#000000" points="764.9679,800.9053,756.441,795.9766,759.9959,800.3769,755.5956,803.9318,764.9679,800.9053" style="stroke:#000000;stroke-width:1.0;"/><text fill="#000000" font-family="Verdana" font-size="13" lengthAdjust="spacing" textLength="67" x="554.5" y="730.27">(Disable())</text></g><!--link eOuterLoopState_Operational to eOuterLoopState_DisablingError--><g id="link_eOuterLoopState_Operational_eOuterLoopState_DisablingError"><path d="M403.6727,658.7614 C403.671,659.1052 403.6694,659.4512 403.668,659.7993 C403.6624,661.1921 403.6593,662.6199 403.659,664.0819 C403.6554,687.4733 404.3884,719.5949 407.2463,756.1831 C412.962,829.3596 427.1775,920.4026 461,995.2031 C542.754,1176.0091 571.649,1246.2381 748,1337.2031 C752.7985,1339.6782 758.2054,1341.1891 763.6447,1342.0575 C763.9846,1342.1118 764.3247,1342.1636 764.6647,1342.2129 C764.7498,1342.2253 758.894,1341.3966 758.979,1341.4086 " fill="none" id="eOuterLoopState_Operational-to-eOuterLoopState_DisablingError" style="stroke:#000000;stroke-width:1.0;"/><polygon fill="#000000" points="764.9198,1342.2495,756.5692,1337.0277,759.9691,1341.5488,755.448,1344.9487,764.9198,1342.2495" style="stroke:#000000;stroke-width:1.0;"/><text fill="#000000" font-family="Verdana" font-size="13" lengthAdjust="spacing" textLength="108" x="534" y="1143.27">(NOT (Disable()))</text></g><!--link eOuterLoopState_Operational_Node_1 to eOuterLoopState_Operational_Node_3--><g id="link_eOuterLoopState_Operational_Node_1_eOuterLoopState_Operational_Node_3"><path d="M1093.95,517.1001 C1137.32,512.2891 1303.7066,493.8357 1347.4166,488.9867 " fill="none" id="eOuterLoopState_Operational_Node_1-to-eOuterLoopState_Operational_Node_3" style="stroke:#000000;stroke-width:1.0;"/><polygon fill="#000000" points="1353.38,488.3251,1343.9938,485.3418,1348.4105,488.8764,1344.8759,493.2931,1353.38,488.3251" style="stroke:#000000;stroke-width:1.0;"/><text fill="#000000" font-family="Verdana" font-size="13" lengthAdjust="spacing" textLength="90" x="1186" y="492.27">(NOT (bError))</text></g><!--link eOuterLoopState_Operational_Node_3 to eOuterLoopState_Operational_Node_4--><g id="link_eOuterLoopState_Operational_Node_3_eOuterLoopState_Operational_Node_4"><path d="M1374.01,484.4681 C1389.42,479.5991 1423.04,469.3621 1452,463.2031 C1497.97,453.4281 1544.7988,446.5284 1583.6888,441.5404 " fill="none" id="eOuterLoopState_Operational_Node_3-to-eOuterLoopState_Operational_Node_4" style="stroke:#000000;stroke-width:1.0;"/><polygon fill="#000000" points="1589.64,440.7771,1580.2043,437.9546,1584.6806,441.4132,1581.222,445.8896,1589.64,440.7771" style="stroke:#000000;stroke-width:1.0;"/><text fill="#000000" font-family="Verdana" font-size="13" lengthAdjust="spacing" textLength="58" x="1473.5" y="441.27">(bActive)</text></g><!--link eOuterLoopState_Operational_Node_3 to eOuterLoopState_Operational_Node_5--><g id="link_eOuterLoopState_Operational_Node_3_eOuterLoopState_Operational_Node_5"><path d="M1376.5,487.0851 C1421.37,486.6051 1584.3503,484.8622 1629.0803,484.3842 " fill="none" id="eOuterLoopState_Operational_Node_3-to-eOuterLoopState_Operational_Node_5" style="stroke:#000000;stroke-width:1.0;"/><polygon fill="#000000" points="1635.08,484.3201,1626.0378,480.4165,1630.0803,484.3736,1626.1233,488.4161,1635.08,484.3201" style="stroke:#000000;stroke-width:1.0;"/><text fill="#000000" font-family="Verdana" font-size="13" lengthAdjust="spacing" textLength="99" x="1453" y="480.27">(NOT (bActive))</text></g><!--link eOuterLoopState_Operational to eOuterLoopState_Inactive--><g id="link_eOuterLoopState_Operational_eOuterLoopState_Inactive"><path d="M406.2237,658.5424 C406.2664,659.2427 406.3102,659.9516 406.3548,660.6687 C406.4442,662.103 406.5373,663.5706 406.6344,665.0699 C408.1876,689.0584 410.7465,721.1498 414.8013,754.5093 C422.9108,821.2281 437.0035,893.0191 461,915.2031 C473.6475,926.8951 626.58,944.2141 777.4956,958.6996 C852.9534,965.9424 927.907,972.4768 984.5687,977.2452 C998.7341,978.4373 1011.7562,979.519 1023.3572,980.4739 C1029.1577,980.9513 1034.6029,981.397 1039.6581,981.8089 C1042.1857,982.0149 1044.6157,982.2124 1046.9439,982.4012 C1047.526,982.4484 1042.1213,982.0106 1042.6905,982.0567 " fill="none" id="eOuterLoopState_Operational-to-eOuterLoopState_Inactive" style="stroke:#000000;stroke-width:1.0;"/><polygon fill="#000000" points="1048.6709,982.5411,1040.0233,977.8276,1043.6873,982.1375,1039.3774,985.8015,1048.6709,982.5411" style="stroke:#000000;stroke-width:1.0;"/><text fill="#000000" font-family="Verdana" font-size="13" lengthAdjust="spacing" textLength="67" x="765.5" y="951.27">(Disable())</text></g><!--link eOuterLoopState_Operational to eOuterLoopState_DisablingInactive--><g id="link_eOuterLoopState_Operational_eOuterLoopState_DisablingInactive"><path d="M406.0806,658.9364 C406.101,659.3117 406.1217,659.6894 406.1426,660.0696 C406.3097,663.111 406.4918,666.3092 406.6896,669.6496 C408.2724,696.3727 410.8663,732.1969 414.9441,769.6524 C423.0998,844.5634 437.191,925.9996 461,954.2031 C516.311,1019.7231 564.79,983.0561 643,1018.2031 C678.3685,1034.0971 716.4698,1055.1789 746.0456,1072.4914 C749.7426,1074.6554 753.3064,1076.7606 756.715,1078.7894 C758.4193,1079.8038 760.0847,1080.7991 761.7087,1081.7731 C762.5207,1082.2601 763.3222,1082.7418 764.1131,1083.2179 C764.3108,1083.3369 759.3687,1080.359 759.565,1080.4773 " fill="none" id="eOuterLoopState_Operational-to-eOuterLoopState_DisablingInactive" style="stroke:#000000;stroke-width:1.0;"/><polygon fill="#000000" points="764.7042,1083.5739,759.0598,1075.5029,760.4216,1080.9934,754.9311,1082.3551,764.7042,1083.5739" style="stroke:#000000;stroke-width:1.0;"/><text fill="#000000" font-family="Verdana" font-size="13" lengthAdjust="spacing" textLength="108" x="534" y="992.27">(NOT (Disable()))</text></g><!--link eOuterLoopState_DisablingInactive to eOuterLoopState_Inactive--><g id="link_eOuterLoopState_DisablingInactive_eOuterLoopState_Inactive"><path d="M1016.4986,1068.9577 C1016.6637,1068.8716 1016.8286,1068.7849 1016.9931,1068.6975 C1017.3222,1068.5228 1017.6502,1068.3457 1017.977,1068.1662 C1019.2843,1067.4481 1020.573,1066.6921 1021.8431,1065.9013 C1024.3834,1064.3195 1026.8492,1062.5983 1029.2392,1060.7628 C1034.0194,1057.0918 1038.497,1052.9634 1042.6627,1048.5782 C1050.9941,1039.8078 1058.0781,1030.0104 1063.8413,1020.791 C1064.0213,1020.5029 1064.2002,1020.2153 1064.3777,1019.9284 C1064.4664,1019.785 1064.5549,1019.6416 1064.643,1019.4985 C1064.687,1019.4269 1061.5918,1024.4686 1061.6357,1024.3971 " fill="none" id="eOuterLoopState_DisablingInactive-to-eOuterLoopState_Inactive" style="stroke:#000000;stroke-width:1.0;"/><polygon fill="#000000" points="1064.7749,1019.2839,1056.6572,1024.8609,1062.1589,1023.5449,1063.4749,1029.0466,1064.7749,1019.2839" style="stroke:#000000;stroke-width:1.0;"/><text fill="#000000" font-family="Verdana" font-size="13" lengthAdjust="spacing" textLength="67" x="943.5" y="1066.27">(Disable())</text></g><!--link eOuterLoopState_Inactive_Node_0 to eOuterLoopState_Inactive_Node_1--><g id="link_eOuterLoopState_Inactive_Node_0_eOuterLoopState_Inactive_Node_1"><path d="M1376.84,949.2031 C1417.12,949.2031 1548.15,949.2031 1609.67,949.2031 " fill="none" id="eOuterLoopState_Inactive_Node_0-to-eOuterLoopState_Inactive_Node_1" style="stroke:#000000;stroke-width:1.0;"/><polygon fill="#000000" points="1615.67,949.2031,1606.67,945.2031,1610.67,949.2031,1606.67,953.2031,1615.67,949.2031" style="stroke:#000000;stroke-width:1.0;"/><text fill="#000000" font-family="Verdana" font-size="13" lengthAdjust="spacing" textLength="58" x="1473.5" y="945.27">(bActive)</text></g><!--link eOuterLoopState_Inactive to eOuterLoopState_Operational--><g id="link_eOuterLoopState_Inactive_eOuterLoopState_Operational"><path d="M1048.9622,984.8298 C1048.828,984.7885 1048.6942,984.7466 1048.5605,984.7039 C1048.0261,984.5333 1047.496,984.3511 1046.9714,984.1568 C1044.873,983.3795 1042.8613,982.4079 1041,981.2031 C1034.984,977.3091 1038.45,971.8551 1033,967.2031 C852.3,812.9751 741.716,891.6771 533,778.2031 C498.091,759.2241 487.294,754.9941 461,725.2031 C444.2475,706.2231 430.2988,681.4594 420.452,661.2031 C420.1443,660.5701 419.8406,659.9415 419.5409,659.3176 C419.3911,659.0057 421.8276,664.1094 421.6798,663.7998 " fill="none" id="eOuterLoopState_Inactive-to-eOuterLoopState_Operational" style="stroke:#000000;stroke-width:1.0;"/><polygon fill="#000000" points="419.0945,658.3854,419.3628,668.2306,421.2489,662.8974,426.582,664.7835,419.0945,658.3854" style="stroke:#000000;stroke-width:1.0;"/><text fill="#000000" font-family="Verdana" font-size="13" lengthAdjust="spacing" textLength="58" x="770" y="845.27">(bActive)</text></g><!--link eOuterLoopState_DisablingError to eOuterLoopState_DisabledError--><g id="link_eOuterLoopState_DisablingError_eOuterLoopState_DisabledError"><path d="M764.7752,1344.5131 C764.6929,1344.5002 764.6106,1344.487 764.5283,1344.4737 C764.3638,1344.447 764.1995,1344.4194 764.0353,1344.3909 C763.3788,1344.2771 762.7253,1344.1492 762.0762,1344.0062 C756.8836,1342.8623 751.972,1340.7554 748,1337.2031 C683.752,1279.7451 649.762,1037.1391 678,955.7031 C691.5625,916.5891 719.6788,879.8939 745.397,852.1954 C751.8266,845.2708 758.1063,838.9084 763.9712,833.2112 C764.1545,833.0331 760.0276,837.0302 760.2101,836.8535 " fill="none" id="eOuterLoopState_DisablingError-to-eOuterLoopState_DisabledError" style="stroke:#000000;stroke-width:1.0;"/><polygon fill="#000000" points="764.5198,832.679,755.2722,836.0676,760.9284,836.1578,760.8382,841.8139,764.5198,832.679" style="stroke:#000000;stroke-width:1.0;"/><text fill="#000000" font-family="Verdana" font-size="13" lengthAdjust="spacing" textLength="67" x="662" y="968.77">(Disable())</text></g><!--link eOuterLoopState_DisabledError to eOuterLoopState_Inactive--><g id="link_eOuterLoopState_DisabledError_eOuterLoopState_Inactive"><path d="M838.3206,836.2217 C838.4378,836.3105 838.5552,836.3992 838.6727,836.4879 C838.9078,836.6654 839.1434,836.8427 839.3796,837.0198 C839.852,837.3741 840.3267,837.7277 840.8036,838.0804 C841.7573,838.7859 842.7198,839.488 843.6901,840.1852 C851.4523,845.7625 859.7135,851.0254 868,855.2031 C935.979,889.4761 983.997,842.9411 1033,901.2031 C1044.5,914.8761 1028.351,968.5851 1041,981.2031 C1042.57,982.769 1044.3609,984.0143 1046.2963,984.9937 C1046.7801,985.2385 1047.273,985.4668 1047.7737,985.6792 C1048.024,985.7855 1048.2763,985.8878 1048.5304,985.9862 C1048.6575,986.0354 1043.1576,984.0022 1043.2856,984.0495 " fill="none" id="eOuterLoopState_DisabledError-to-eOuterLoopState_Inactive" style="stroke:#000000;stroke-width:1.0;"/><polygon fill="#000000" points="1048.913,986.131,1041.8596,979.2572,1044.2235,984.3964,1039.0842,986.7603,1048.913,986.131" style="stroke:#000000;stroke-width:1.0;"/><text fill="#000000" font-family="Verdana" font-size="13" lengthAdjust="spacing" textLength="72" x="941" y="865.27">(bErrorAck)</text></g><!--SRC=[hLPTQ-9057rkViLK7seM16CKIYa1btQXiArBz6qfCYPNCpHEmcHSTYd-zutvq2GcCvDOtqpEkJFtd3EJUyizs04AVKoeTXTz48fO487cmuOZ7Y16jXv7Bc7WS19GpICk8DY5_1zo8N8O2PF7TxTf7GQkoo2AXlwHjsK0LEE4-u1-V5yjEERmYXsFK4397_H4y9RXdHR_ekH11VQPFuVvdWFx6GHXIkpVJzR6Pee-jPlVtzxHS6XL8Qi5y7s87j1YERENsarjdGpKJxQxzlSG5qo1lMVRdjizXADwpYfvZnuVuI_Xlm92kMMX_cPZnhzyiLwA70rqGPstm8NL2ELzD3MIuohzf4l85p3Y1KGIfAXnt8_Z1SG1ophXUpP4mELBcF4ImjT9SySk7z1WFOlpz0Tq8MLSehpDbsTUJ3mqUJeFWU5ZBB7Vqja2KybV6x1xPEwZ1dcA1UL6rw1FTijxpOqkMQXAApkl02ywyqGYlFPXeEkjgOcfPxwktgXPczKNIZFMgweb4zH2fsaxdQRTTPfAT6gCVueYTFj2SN9OMXw22xxAKP0NoG9TbA_n83IoJyT1cT6aVwDy7LMxHgnE6ZLAet1hbxb6pSLTHTJVtV8CFZCMiAu1JCXNfI-jq2bw9QeyToLuwz1b8BUxN1ctkrfvWVPYLPWIhIheKh2IDpFd8vNg81mEHj9XoH3o3Ib_h3AS22SU-Q0Z7GGwrpZTOpMZayBWeJQW60gr3CLQutC4n5jKo6ABhwtADL3_1VwopispHsdxAiLDnU8JSO8wrvss39OyfLzZs4NkXPvTqgxQPktq8Vks2lqHxqlvegZa-VeJL0PBHIjSxPfs-0y0]--></g></svg>