<?xml version="1.0" encoding="windows-1252" standalone="no"?>
<svg xmlns="http://www.w3.org/2000/svg" xmlns:xlink="http://www.w3.org/1999/xlink" contentStyleType="text/css" height="1653px" preserveAspectRatio="none" style="width:2687px;height:1653px;background:#FFFFFF;" version="1.1" viewBox="0 0 2687 1653" width="2687px" zoomAndPan="magnify"><defs/><g><text fill="#000000" font-family="Verdana" font-size="22" font-weight="bold" lengthAdjust="spacing" textLength="417" x="1127.5" y="35.4209">FB_Teleoperation State Diagram</text><path d="M24.5,58.6094 L2661.5,58.6094 A12.5,12.5 0 0 1 2674,71.1094 L2674,84.9063 L12,84.9063 L12,71.1094 A12.5,12.5 0 0 1 24.5,58.6094 " fill="#FFFFFF" style="stroke:#FFFFFF;stroke-width:1.0;"/><path d="M12,84.9063 L2674,84.9063 L2674,1627.9182 A12.5,12.5 0 0 1 2661.5,1640.4182 L24.5,1640.4182 A12.5,12.5 0 0 1 12,1627.9182 L12,84.9063 " fill="#FFFFFF" style="stroke:#FFFFFF;stroke-width:1.0;"/><rect fill="none" height="1581.8089" rx="12.5" ry="12.5" style="stroke:#000000;stroke-width:1.0;" width="2662" x="12" y="58.6094"/><line style="stroke:#000000;stroke-width:1.0;" x1="12" x2="2674" y1="84.9063" y2="84.9063"/><text fill="#000000" font-family="Verdana" font-size="14" lengthAdjust="spacing" textLength="127" x="1279.5" y="76.6045">FB_Teleoperation</text><path d="M36.5,96.9063 L2652.5,96.9063 A12.5,12.5 0 0 1 2665,109.4063 L2665,123.2031 L24,123.2031 L24,109.4063 A12.5,12.5 0 0 1 36.5,96.9063 " fill="#84B1F5" style="stroke:#84B1F5;stroke-width:1.0;"/><path d="M24,123.2031 L2665,123.2031 L2665,1616.9182 A12.5,12.5 0 0 1 2652.5,1629.4182 L36.5,1629.4182 A12.5,12.5 0 0 1 24,1616.9182 L24,123.2031 " fill="#FFFFFF" style="stroke:#FFFFFF;stroke-width:1.0;"/><rect fill="none" height="1532.512" rx="12.5" ry="12.5" style="stroke:#000000;stroke-width:1.0;" width="2641" x="24" y="96.9063"/><line style="stroke:#000000;stroke-width:1.0;" x1="24" x2="2665" y1="123.2031" y2="123.2031"/><text fill="#000000" font-family="Verdana" font-size="14" lengthAdjust="spacing" textLength="86" x="1301.5" y="114.9014">eInnerState</text><!--cluster eInnerState_Idle--><g id="cluster_eInnerState_Idle"><path d="M72.5,258.5631 L225.5,258.5631 A12.5,12.5 0 0 1 238,271.0631 L238,279.86 L60,279.86 L60,271.0631 A12.5,12.5 0 0 1 72.5,258.5631 " fill="#ADD8E6" style="stroke:#ADD8E6;stroke-width:1.0;"/><path d="M60,279.86 L238,279.86 L238,675.0631 A12.5,12.5 0 0 1 225.5,687.5631 L72.5,687.5631 A12.5,12.5 0 0 1 60,675.0631 L60,279.86 " fill="#FFFFFF" style="stroke:#FFFFFF;stroke-width:1.0;"/><rect fill="none" height="429" rx="12.5" ry="12.5" style="stroke:#000000;stroke-width:1.0;" width="178" x="60" y="258.5631"/><line style="stroke:#000000;stroke-width:1.0;" x1="60" x2="238" y1="279.86" y2="279.86"/><text fill="#000000" font-family="Verdana" font-size="14" lengthAdjust="spacing" textLength="119" x="89.5" y="276.5582">eInnerState_Idle</text></g><!--cluster eInnerState_StartCommRM1--><g id="cluster_eInnerState_StartCommRM1"><path d="M274.5,445.5631 L858.5,445.5631 A12.5,12.5 0 0 1 871,458.0631 L871,466.86 L262,466.86 L262,458.0631 A12.5,12.5 0 0 1 274.5,445.5631 " fill="#ADD8E6" style="stroke:#ADD8E6;stroke-width:1.0;"/><path d="M262,466.86 L871,466.86 L871,1135.4231 A12.5,12.5 0 0 1 858.5,1147.9231 L274.5,1147.9231 A12.5,12.5 0 0 1 262,1135.4231 L262,466.86 " fill="#FFFFFF" style="stroke:#FFFFFF;stroke-width:1.0;"/><rect fill="none" height="702.36" rx="12.5" ry="12.5" style="stroke:#000000;stroke-width:1.0;" width="609" x="262" y="445.5631"/><line style="stroke:#000000;stroke-width:1.0;" x1="262" x2="871" y1="466.86" y2="466.86"/><text fill="#000000" font-family="Verdana" font-size="14" lengthAdjust="spacing" textLength="208" x="462.5" y="463.5582">eInnerState_StartCommRM1</text></g><!--cluster eInnerState_StartCommRM2--><g id="cluster_eInnerState_StartCommRM2"><path d="M907.5,599.5631 L1419.5,599.5631 A12.5,12.5 0 0 1 1432,612.0631 L1432,620.86 L895,620.86 L895,612.0631 A12.5,12.5 0 0 1 907.5,599.5631 " fill="#ADD8E6" style="stroke:#ADD8E6;stroke-width:1.0;"/><path d="M895,620.86 L1432,620.86 L1432,1313.4231 A12.5,12.5 0 0 1 1419.5,1325.9231 L907.5,1325.9231 A12.5,12.5 0 0 1 895,1313.4231 L895,620.86 " fill="#FFFFFF" style="stroke:#FFFFFF;stroke-width:1.0;"/><rect fill="none" height="726.36" rx="12.5" ry="12.5" style="stroke:#000000;stroke-width:1.0;" width="537" x="895" y="599.5631"/><line style="stroke:#000000;stroke-width:1.0;" x1="895" x2="1432" y1="620.86" y2="620.86"/><text fill="#000000" font-family="Verdana" font-size="14" lengthAdjust="spacing" textLength="207" x="1060" y="617.5582">eInnerState_StartCommRM2</text></g><!--cluster eInnerState_EnableArmMotors1--><g id="cluster_eInnerState_EnableArmMotors1"><path d="M1468.5,774.5631 L1997.5,774.5631 A12.5,12.5 0 0 1 2010,787.0631 L2010,795.86 L1456,795.86 L1456,787.0631 A12.5,12.5 0 0 1 1468.5,774.5631 " fill="#ADD8E6" style="stroke:#ADD8E6;stroke-width:1.0;"/><path d="M1456,795.86 L2010,795.86 L2010,1450.4231 A12.5,12.5 0 0 1 1997.5,1462.9231 L1468.5,1462.9231 A12.5,12.5 0 0 1 1456,1450.4231 L1456,795.86 " fill="#FFFFFF" style="stroke:#FFFFFF;stroke-width:1.0;"/><rect fill="none" height="688.36" rx="12.5" ry="12.5" style="stroke:#000000;stroke-width:1.0;" width="554" x="1456" y="774.5631"/><line style="stroke:#000000;stroke-width:1.0;" x1="1456" x2="2010" y1="795.86" y2="795.86"/><text fill="#000000" font-family="Verdana" font-size="14" lengthAdjust="spacing" textLength="231" x="1617.5" y="792.5582">eInnerState_EnableArmMotors1</text></g><!--cluster eInnerState_EnableArmMotors2--><g id="cluster_eInnerState_EnableArmMotors2"><path d="M2046.5,936.5631 L2448.5,936.5631 A12.5,12.5 0 0 1 2461,949.0631 L2461,957.86 L2034,957.86 L2034,949.0631 A12.5,12.5 0 0 1 2046.5,936.5631 " fill="#ADD8E6" style="stroke:#ADD8E6;stroke-width:1.0;"/><path d="M2034,957.86 L2461,957.86 L2461,1585.4231 A12.5,12.5 0 0 1 2448.5,1597.9231 L2046.5,1597.9231 A12.5,12.5 0 0 1 2034,1585.4231 L2034,957.86 " fill="#FFFFFF" style="stroke:#FFFFFF;stroke-width:1.0;"/><rect fill="none" height="661.36" rx="12.5" ry="12.5" style="stroke:#000000;stroke-width:1.0;" width="427" x="2034" y="936.5631"/><line style="stroke:#000000;stroke-width:1.0;" x1="2034" x2="2461" y1="957.86" y2="957.86"/><text fill="#000000" font-family="Verdana" font-size="14" lengthAdjust="spacing" textLength="230" x="2132.5" y="954.5582">eInnerState_EnableArmMotors2</text></g><!--cluster eInnerState_Setup--><g id="cluster_eInnerState_Setup"><path d="M2497.5,1104.5631 L2640.5,1104.5631 A12.5,12.5 0 0 1 2653,1117.0631 L2653,1125.86 L2485,1125.86 L2485,1117.0631 A12.5,12.5 0 0 1 2497.5,1104.5631 " fill="#ADD8E6" style="stroke:#ADD8E6;stroke-width:1.0;"/><path d="M2485,1125.86 L2653,1125.86 L2653,1197.4231 A12.5,12.5 0 0 1 2640.5,1209.9231 L2497.5,1209.9231 A12.5,12.5 0 0 1 2485,1197.4231 L2485,1125.86 " fill="#FFFFFF" style="stroke:#FFFFFF;stroke-width:1.0;"/><rect fill="none" height="105.36" rx="12.5" ry="12.5" style="stroke:#000000;stroke-width:1.0;" width="168" x="2485" y="1104.5631"/><line style="stroke:#000000;stroke-width:1.0;" x1="2485" x2="2653" y1="1125.86" y2="1125.86"/><text fill="#000000" font-family="Verdana" font-size="14" lengthAdjust="spacing" textLength="136" x="2501" y="1122.5582">eInnerState_Setup</text></g><!--cluster eInnerState_Active--><g id="cluster_eInnerState_Active"><path d="M792.5,135.2031 L938.5,135.2031 A12.5,12.5 0 0 1 951,147.7031 L951,156.5 L780,156.5 L780,147.7031 A12.5,12.5 0 0 1 792.5,135.2031 " fill="#ADD8E6" style="stroke:#ADD8E6;stroke-width:1.0;"/><path d="M780,156.5 L951,156.5 L951,204.0631 A12.5,12.5 0 0 1 938.5,216.5631 L792.5,216.5631 A12.5,12.5 0 0 1 780,204.0631 L780,156.5 " fill="#FFFFFF" style="stroke:#FFFFFF;stroke-width:1.0;"/><rect fill="none" height="81.36" rx="12.5" ry="12.5" style="stroke:#000000;stroke-width:1.0;" width="171" x="780" y="135.2031"/><line style="stroke:#000000;stroke-width:1.0;" x1="780" x2="951" y1="156.5" y2="156.5"/><text fill="#000000" font-family="Verdana" font-size="14" lengthAdjust="spacing" textLength="139" x="796" y="153.1982">eInnerState_Active</text></g><!--cluster eInnerState_WrapUp--><g id="cluster_eInnerState_WrapUp"><path d="M1984.5,135.2031 L2141.5,135.2031 A12.5,12.5 0 0 1 2154,147.7031 L2154,156.5 L1972,156.5 L1972,147.7031 A12.5,12.5 0 0 1 1984.5,135.2031 " fill="#ADD8E6" style="stroke:#ADD8E6;stroke-width:1.0;"/><path d="M1972,156.5 L2154,156.5 L2154,204.0631 A12.5,12.5 0 0 1 2141.5,216.5631 L1984.5,216.5631 A12.5,12.5 0 0 1 1972,204.0631 L1972,156.5 " fill="#FFFFFF" style="stroke:#FFFFFF;stroke-width:1.0;"/><rect fill="none" height="81.36" rx="12.5" ry="12.5" style="stroke:#000000;stroke-width:1.0;" width="182" x="1972" y="135.2031"/><line style="stroke:#000000;stroke-width:1.0;" x1="1972" x2="2154" y1="156.5" y2="156.5"/><text fill="#000000" font-family="Verdana" font-size="14" lengthAdjust="spacing" textLength="150" x="1988" y="153.1982">eInnerState_WrapUp</text></g><text fill="#000000" font-family="Verdana" font-size="14" lengthAdjust="spacing" textLength="50" x="35" y="336.2614">ERROR</text><ellipse cx="60" cy="357.5631" fill="#FF3333" rx="6" ry="6" style="stroke:#000000;stroke-width:1.5;"/><line style="stroke:#000000;stroke-width:1.5;" x1="64.3891" x2="56.6109" y1="361.9522" y2="354.174"/><line style="stroke:#000000;stroke-width:1.5;" x1="64.3891" x2="56.6109" y1="354.174" y2="361.9522"/><g id="elem_eInnerState_Idle_Node_0"><polygon fill="#FFFFFF" points="146,486.5631,158,498.5631,146,510.5631,134,498.5631,146,486.5631" style="stroke:#000000;stroke-width:1.0;"/></g><ellipse cx="146" cy="311.5631" fill="#FFFFFF" rx="10" ry="10" style="stroke:#000000;stroke-width:1.0;"/><ellipse cx="146" cy="652.5631" fill="none" rx="11" ry="11" style="stroke:#000000;stroke-width:1.0;"/><ellipse cx="146" cy="652.5631" fill="#FFFFFF" rx="6" ry="6" style="stroke:#000000;stroke-width:1.0;"/><text fill="#000000" font-family="Verdana" font-size="14" lengthAdjust="spacing" textLength="50" x="541" y="1166.9182">ERROR</text><ellipse cx="566" cy="1147.9231" fill="#FF3333" rx="6" ry="6" style="stroke:#000000;stroke-width:1.5;"/><line style="stroke:#000000;stroke-width:1.5;" x1="570.3891" x2="562.6109" y1="1152.3122" y2="1144.534"/><line style="stroke:#000000;stroke-width:1.5;" x1="570.3891" x2="562.6109" y1="1144.534" y2="1152.3122"/><g id="elem_eInnerState_StartCommRM1_Node_0"><polygon fill="#FFFFFF" points="451,640.5631,463,652.5631,451,664.5631,439,652.5631,451,640.5631" style="stroke:#000000;stroke-width:1.0;"/></g><ellipse cx="451" cy="498.5631" fill="#FFFFFF" rx="10" ry="10" style="stroke:#000000;stroke-width:1.0;"/><rect fill="#FFFFFF" height="40" rx="12.5" ry="12.5" style="stroke:#000000;stroke-width:1.0;" width="366" x="400" y="807.5631"/><text fill="#000000" font-family="Verdana" font-size="14" lengthAdjust="spacing" textLength="356" x="405" y="832.4098">fbEventHandler(SYSTEM_IN_UNEXPECTED_STATE)</text><g id="elem_eInnerState_StartCommRM1_Node_2"><polygon fill="#FFFFFF" points="320,815.5631,332,827.5631,320,839.5631,308,827.5631,320,815.5631" style="stroke:#000000;stroke-width:1.0;"/></g><rect fill="#FFFFFF" height="40" rx="12.5" ry="12.5" style="stroke:#000000;stroke-width:1.0;" width="315" x="286.5" y="969.5631"/><text fill="#000000" font-family="Verdana" font-size="14" lengthAdjust="spacing" textLength="305" x="291.5" y="994.4098">fbEventHandler(UNABLE_TO_START_TASK)</text><ellipse cx="631" cy="989.5631" fill="none" rx="11" ry="11" style="stroke:#000000;stroke-width:1.0;"/><ellipse cx="631" cy="989.5631" fill="#FFFFFF" rx="6" ry="6" style="stroke:#000000;stroke-width:1.0;"/><text fill="#000000" font-family="Verdana" font-size="14" lengthAdjust="spacing" textLength="50" x="1008" y="1344.9182">ERROR</text><ellipse cx="1033" cy="1325.9231" fill="#FF3333" rx="6" ry="6" style="stroke:#000000;stroke-width:1.5;"/><line style="stroke:#000000;stroke-width:1.5;" x1="1037.3891" x2="1029.6109" y1="1330.3122" y2="1322.534"/><line style="stroke:#000000;stroke-width:1.5;" x1="1037.3891" x2="1029.6109" y1="1322.534" y2="1330.3122"/><g id="elem_eInnerState_StartCommRM2_Node_0"><polygon fill="#FFFFFF" points="1051,815.5631,1063,827.5631,1051,839.5631,1039,827.5631,1051,815.5631" style="stroke:#000000;stroke-width:1.0;"/></g><ellipse cx="1051" cy="652.5631" fill="#FFFFFF" rx="10" ry="10" style="stroke:#000000;stroke-width:1.0;"/><g id="elem_eInnerState_StartCommRM2_Node_1"><polygon fill="#FFFFFF" points="1051,977.5631,1063,989.5631,1051,1001.5631,1039,989.5631,1051,977.5631" style="stroke:#000000;stroke-width:1.0;"/></g><rect fill="#FFFFFF" height="40" rx="12.5" ry="12.5" style="stroke:#000000;stroke-width:1.0;" width="228" x="919" y="1127.9231"/><text fill="#000000" font-family="Verdana" font-size="14" lengthAdjust="spacing" textLength="218" x="924" y="1152.7698">fbEventHandler(TASK_FAILED)</text><ellipse cx="1176" cy="1147.9231" fill="none" rx="11" ry="11" style="stroke:#000000;stroke-width:1.0;"/><ellipse cx="1176" cy="1147.9231" fill="#FFFFFF" rx="6" ry="6" style="stroke:#000000;stroke-width:1.0;"/><text fill="#000000" font-family="Verdana" font-size="14" lengthAdjust="spacing" textLength="50" x="1749" y="1481.9182">ERROR</text><ellipse cx="1774" cy="1462.9231" fill="#FF3333" rx="6" ry="6" style="stroke:#000000;stroke-width:1.5;"/><line style="stroke:#000000;stroke-width:1.5;" x1="1778.3891" x2="1770.6109" y1="1467.3122" y2="1459.534"/><line style="stroke:#000000;stroke-width:1.5;" x1="1778.3891" x2="1770.6109" y1="1459.534" y2="1467.3122"/><g id="elem_eInnerState_EnableArmMotors1_Node_0"><polygon fill="#FFFFFF" points="1601,977.5631,1613,989.5631,1601,1001.5631,1589,989.5631,1601,977.5631" style="stroke:#000000;stroke-width:1.0;"/></g><ellipse cx="1601" cy="827.5631" fill="#FFFFFF" rx="10" ry="10" style="stroke:#000000;stroke-width:1.0;"/><rect fill="#FFFFFF" height="40" rx="12.5" ry="12.5" style="stroke:#000000;stroke-width:1.0;" width="366" x="1522" y="1127.9231"/><text fill="#000000" font-family="Verdana" font-size="14" lengthAdjust="spacing" textLength="356" x="1527" y="1152.7698">fbEventHandler(SYSTEM_IN_UNEXPECTED_STATE)</text><g id="elem_eInnerState_EnableArmMotors1_Node_2"><polygon fill="#FFFFFF" points="1492,1135.9231,1504,1147.9231,1492,1159.9231,1480,1147.9231,1492,1135.9231" style="stroke:#000000;stroke-width:1.0;"/></g><rect fill="#FFFFFF" height="40" rx="12.5" ry="12.5" style="stroke:#000000;stroke-width:1.0;" width="315" x="1480.5" y="1305.9231"/><text fill="#000000" font-family="Verdana" font-size="14" lengthAdjust="spacing" textLength="305" x="1485.5" y="1330.7698">fbEventHandler(UNABLE_TO_START_TASK)</text><ellipse cx="1825" cy="1325.9231" fill="none" rx="11" ry="11" style="stroke:#000000;stroke-width:1.0;"/><ellipse cx="1825" cy="1325.9231" fill="#FFFFFF" rx="6" ry="6" style="stroke:#000000;stroke-width:1.0;"/><text fill="#000000" font-family="Verdana" font-size="14" lengthAdjust="spacing" textLength="50" x="2147" y="1616.9182">ERROR</text><ellipse cx="2172" cy="1597.9231" fill="#FF3333" rx="6" ry="6" style="stroke:#000000;stroke-width:1.5;"/><line style="stroke:#000000;stroke-width:1.5;" x1="2176.3891" x2="2168.6109" y1="1602.3122" y2="1594.534"/><line style="stroke:#000000;stroke-width:1.5;" x1="2176.3891" x2="2168.6109" y1="1594.534" y2="1602.3122"/><g id="elem_eInnerState_EnableArmMotors2_Node_0"><polygon fill="#FFFFFF" points="2163,1135.9231,2175,1147.9231,2163,1159.9231,2151,1147.9231,2163,1135.9231" style="stroke:#000000;stroke-width:1.0;"/></g><ellipse cx="2163" cy="989.5631" fill="#FFFFFF" rx="10" ry="10" style="stroke:#000000;stroke-width:1.0;"/><g id="elem_eInnerState_EnableArmMotors2_Node_1"><polygon fill="#FFFFFF" points="2163,1313.9231,2175,1325.9231,2163,1337.9231,2151,1325.9231,2163,1313.9231" style="stroke:#000000;stroke-width:1.0;"/></g><rect fill="#FFFFFF" height="40" rx="12.5" ry="12.5" style="stroke:#000000;stroke-width:1.0;" width="228" x="2058" y="1442.9231"/><text fill="#000000" font-family="Verdana" font-size="14" lengthAdjust="spacing" textLength="218" x="2063" y="1467.7698">fbEventHandler(TASK_FAILED)</text><ellipse cx="2315" cy="1462.9231" fill="none" rx="11" ry="11" style="stroke:#000000;stroke-width:1.0;"/><ellipse cx="2315" cy="1462.9231" fill="#FFFFFF" rx="6" ry="6" style="stroke:#000000;stroke-width:1.0;"/><text fill="#000000" font-family="Verdana" font-size="14" lengthAdjust="spacing" textLength="50" x="2544" y="1228.9182">ERROR</text><ellipse cx="2569" cy="1209.9231" fill="#FF3333" rx="6" ry="6" style="stroke:#000000;stroke-width:1.5;"/><line style="stroke:#000000;stroke-width:1.5;" x1="2573.3891" x2="2565.6109" y1="1214.3122" y2="1206.534"/><line style="stroke:#000000;stroke-width:1.5;" x1="2573.3891" x2="2565.6109" y1="1206.534" y2="1214.3122"/><text fill="#000000" font-family="Verdana" font-size="14" lengthAdjust="spacing" textLength="50" x="840" y="235.5582">ERROR</text><ellipse cx="865" cy="216.5631" fill="#FF3333" rx="6" ry="6" style="stroke:#000000;stroke-width:1.5;"/><line style="stroke:#000000;stroke-width:1.5;" x1="869.3891" x2="861.6109" y1="220.9522" y2="213.174"/><line style="stroke:#000000;stroke-width:1.5;" x1="869.3891" x2="861.6109" y1="213.174" y2="220.9522"/><text fill="#000000" font-family="Verdana" font-size="14" lengthAdjust="spacing" textLength="50" x="2038" y="235.5582">ERROR</text><ellipse cx="2063" cy="216.5631" fill="#FF3333" rx="6" ry="6" style="stroke:#000000;stroke-width:1.5;"/><line style="stroke:#000000;stroke-width:1.5;" x1="2067.3891" x2="2059.6109" y1="220.9522" y2="213.174"/><line style="stroke:#000000;stroke-width:1.5;" x1="2067.3891" x2="2059.6109" y1="213.174" y2="220.9522"/><ellipse cx="222" cy="170.5631" fill="#FFFFFF" rx="10" ry="10" style="stroke:#000000;stroke-width:1.0;"/><!--link *start*eInnerState to eInnerState_Idle--><g id="link_*start*eInnerState_eInnerState_Idle"><path d="M222,180.6831 C222,195.9031 222,227.6031 222,255.8744 C222,256.7579 222,251.638 222,252.5142 " fill="none" id="*start*eInnerState-to-eInnerState_Idle" style="stroke:#000000;stroke-width:1.0;"/><polygon fill="#000000" points="222,258.5142,226,249.5142,222,253.5142,218,249.5142,222,258.5142" style="stroke:#000000;stroke-width:1.0;"/><text fill="#000000" font-family="Verdana" font-size="13" lengthAdjust="spacing" textLength="42" x="223" y="221.13">START</text></g><!--link *start*eInnerState_Idle to eInnerState_Idle_Node_0--><g id="link_*start*eInnerState_Idle_eInnerState_Idle_Node_0"><path d="M146,321.7331 C146,352.6531 146,446.9431 146,480.5031 " fill="none" id="*start*eInnerState_Idle-to-eInnerState_Idle_Node_0" style="stroke:#000000;stroke-width:1.0;"/><polygon fill="#000000" points="146,486.5031,150,477.5031,146,481.5031,142,477.5031,146,486.5031" style="stroke:#000000;stroke-width:1.0;"/><text fill="#000000" font-family="Verdana" font-size="13" lengthAdjust="spacing" textLength="42" x="147" y="406.63">START</text></g><!--link eInnerState_Idle_Node_0 to *end*eInnerState_Idle--><g id="link_eInnerState_Idle_Node_0_*end*eInnerState_Idle"><path d="M146,510.9831 C146,539.5731 146,607.8431 146,635.2261 " fill="none" id="eInnerState_Idle_Node_0-to-*end*eInnerState_Idle" style="stroke:#000000;stroke-width:1.0;"/><polygon fill="#000000" points="146,641.2261,150,632.2261,146,636.2261,142,632.2261,146,641.2261" style="stroke:#000000;stroke-width:1.0;"/><text fill="#000000" font-family="Verdana" font-size="13" lengthAdjust="spacing" textLength="49" x="147" y="560.63">(bStart)</text></g><!--link *start*eInnerState_StartCommRM1 to eInnerState_StartCommRM1_Node_0--><g id="link_*start*eInnerState_StartCommRM1_eInnerState_StartCommRM1_Node_0"><path d="M451,508.6131 C451,534.9431 451,605.4631 451,634.3481 " fill="none" id="*start*eInnerState_StartCommRM1-to-eInnerState_StartCommRM1_Node_0" style="stroke:#000000;stroke-width:1.0;"/><polygon fill="#000000" points="451,640.3481,455,631.3481,451,635.3481,447,631.3481,451,640.3481" style="stroke:#000000;stroke-width:1.0;"/><text fill="#000000" font-family="Verdana" font-size="13" lengthAdjust="spacing" textLength="42" x="452" y="560.63">START</text></g><!--link eInnerState_StartCommRM1_Node_2 to *end*eInnerState_StartCommRM1--><g id="link_eInnerState_StartCommRM1_Node_2_*end*eInnerState_StartCommRM1"><path d="M328.795,830.9751 C365.272,840.9991 503.12,879.0991 511,884.5631 C527.436,895.9591 520.633,910.6431 538,920.5631 C565.957,936.5321 584.811,908.5091 610,928.5631 C625.196,940.6611 628.9179,958.5054 630.0759,972.2124 " fill="none" id="eInnerState_StartCommRM1_Node_2-to-*end*eInnerState_StartCommRM1" style="stroke:#000000;stroke-width:1.0;"/><polygon fill="#000000" points="630.581,978.1911,633.8092,968.8863,630.1601,973.2089,625.8376,969.5598,630.581,978.1911" style="stroke:#000000;stroke-width:1.0;"/><text fill="#000000" font-family="Verdana" font-size="13" lengthAdjust="spacing" textLength="232" x="525" y="897.63">(NOT (fbRemoteManipulator.bError))</text></g><!--link *start*eInnerState_StartCommRM2 to eInnerState_StartCommRM2_Node_0--><g id="link_*start*eInnerState_StartCommRM2_eInnerState_StartCommRM2_Node_0"><path d="M1051,662.8641 C1051,692.3411 1051,777.6121 1051,809.4611 " fill="none" id="*start*eInnerState_StartCommRM2-to-eInnerState_StartCommRM2_Node_0" style="stroke:#000000;stroke-width:1.0;"/><polygon fill="#000000" points="1051,815.4611,1055,806.4611,1051,810.4611,1047,806.4611,1051,815.4611" style="stroke:#000000;stroke-width:1.0;"/><text fill="#000000" font-family="Verdana" font-size="13" lengthAdjust="spacing" textLength="42" x="1052" y="735.63">START</text></g><!--link eInnerState_StartCommRM2_Node_1 to *end*eInnerState_StartCommRM2--><g id="link_eInnerState_StartCommRM2_Node_1_*end*eInnerState_StartCommRM2"><path d="M1059.01,993.7471 C1076.9,1001.2551 1120.36,1021.7821 1144,1052.5631 C1164.12,1078.7681 1171.1542,1112.4604 1173.8742,1130.8954 " fill="none" id="eInnerState_StartCommRM2_Node_1-to-*end*eInnerState_StartCommRM2" style="stroke:#000000;stroke-width:1.0;"/><polygon fill="#000000" points="1174.75,1136.8311,1177.3935,1127.3437,1174.0202,1131.8847,1169.4792,1128.5114,1174.75,1136.8311" style="stroke:#000000;stroke-width:1.0;"/><text fill="#000000" font-family="Verdana" font-size="13" lengthAdjust="spacing" textLength="232" x="1156" y="1065.63">(NOT (fbRemoteManipulator.bError))</text></g><!--link *start*eInnerState_EnableArmMotors1 to eInnerState_EnableArmMotors1_Node_0--><g id="link_*start*eInnerState_EnableArmMotors1_eInnerState_EnableArmMotors1_Node_0"><path d="M1601,837.6241 C1601,865.1241 1601,941.5801 1601,971.5341 " fill="none" id="*start*eInnerState_EnableArmMotors1-to-eInnerState_EnableArmMotors1_Node_0" style="stroke:#000000;stroke-width:1.0;"/><polygon fill="#000000" points="1601,977.5341,1605,968.5341,1601,972.5341,1597,968.5341,1601,977.5341" style="stroke:#000000;stroke-width:1.0;"/><text fill="#000000" font-family="Verdana" font-size="13" lengthAdjust="spacing" textLength="42" x="1602" y="897.63">START</text></g><!--link eInnerState_EnableArmMotors1_Node_2 to *end*eInnerState_EnableArmMotors1--><g id="link_eInnerState_EnableArmMotors1_Node_2_*end*eInnerState_EnableArmMotors1"><path d="M1495.25,1157.0551 C1498.69,1164.7941 1504.75,1176.3511 1513,1183.9231 C1563.66,1230.4321 1599.01,1208.0851 1652,1251.9231 C1667.41,1264.6711 1661.8,1277.7231 1679,1287.9231 C1727.28,1316.5471 1753.2,1282.0551 1804,1305.9231 C1809.52,1308.5161 1810.4889,1308.7028 1814.2789,1312.6948 " fill="none" id="eInnerState_EnableArmMotors1_Node_2-to-*end*eInnerState_EnableArmMotors1" style="stroke:#000000;stroke-width:1.0;"/><polygon fill="#000000" points="1818.41,1317.0461,1815.1142,1307.7651,1814.9674,1313.42,1809.3124,1313.2733,1818.41,1317.0461" style="stroke:#000000;stroke-width:1.0;"/><text fill="#000000" font-family="Verdana" font-size="13" lengthAdjust="spacing" textLength="177" x="1665" y="1264.99">(NOT (fbArmMotors.bError))</text></g><!--link *start*eInnerState_EnableArmMotors2 to eInnerState_EnableArmMotors2_Node_0--><g id="link_*start*eInnerState_EnableArmMotors2_eInnerState_EnableArmMotors2_Node_0"><path d="M2163,999.8761 C2163,1027.0941 2163,1100.4381 2163,1129.8151 " fill="none" id="*start*eInnerState_EnableArmMotors2-to-eInnerState_EnableArmMotors2_Node_0" style="stroke:#000000;stroke-width:1.0;"/><polygon fill="#000000" points="2163,1135.8151,2167,1126.8151,2163,1130.8151,2159,1126.8151,2163,1135.8151" style="stroke:#000000;stroke-width:1.0;"/><text fill="#000000" font-family="Verdana" font-size="13" lengthAdjust="spacing" textLength="42" x="2164" y="1065.63">START</text></g><!--link eInnerState_EnableArmMotors2_Node_1 to *end*eInnerState_EnableArmMotors2--><g id="link_eInnerState_EnableArmMotors2_Node_1_*end*eInnerState_EnableArmMotors2"><path d="M2169.13,1332.1591 C2188.06,1348.3741 2247.25,1399.2941 2295,1442.9231 C2299.1,1446.6711 2299.2544,1446.7755 2302.9444,1450.3055 " fill="none" id="eInnerState_EnableArmMotors2_Node_1-to-*end*eInnerState_EnableArmMotors2" style="stroke:#000000;stroke-width:1.0;"/><polygon fill="#000000" points="2307.28,1454.4531,2303.5417,1445.3413,2303.667,1450.9968,2298.0115,1451.1221,2307.28,1454.4531" style="stroke:#000000;stroke-width:1.0;"/><text fill="#000000" font-family="Verdana" font-size="13" lengthAdjust="spacing" textLength="177" x="2255" y="1401.99">(NOT (fbArmMotors.bError))</text></g><!--link eInnerState_Idle to eInnerState_StartCommRM1--><g id="link_eInnerState_Idle_eInnerState_StartCommRM1"><path d="M238.769,313.7088 C239.1402,313.7357 239.517,313.763 239.8994,313.7909 C241.429,313.9024 243.0485,314.0218 244.7545,314.1494 C258.4029,315.1701 277.5926,316.7109 300.6707,318.8461 C346.8268,323.1166 408.5364,329.765 472.5766,339.3869 C600.657,358.6306 738.0595,389.7681 779,437.5631 C780.0527,438.7919 780.9926,440.0918 781.8294,441.4498 C782.2479,442.1288 782.6406,442.8223 783.0087,443.5286 C783.1928,443.8818 783.3707,444.2382 783.5427,444.5976 C783.6287,444.7773 783.7132,444.9578 783.7962,445.139 C783.8377,445.2296 781.4246,439.8453 781.4653,439.9362 " fill="none" id="eInnerState_Idle-to-eInnerState_StartCommRM1" style="stroke:#000000;stroke-width:1.0;"/><polygon fill="#000000" points="783.9196,445.4113,783.8883,435.5625,781.8744,440.8487,776.5881,438.8349,783.9196,445.4113" style="stroke:#000000;stroke-width:1.0;"/><text fill="#000000" font-family="Verdana" font-size="13" lengthAdjust="spacing" textLength="49" x="745" y="406.63">(bStart)</text></g><!--link eInnerState_StartCommRM1_Node_0 to eInnerState_StartCommRM1_Node_1--><g id="link_eInnerState_StartCommRM1_Node_0_eInnerState_StartCommRM1_Node_1"><path d="M459.416,656.3181 C480.12,663.5561 533.75,685.1681 560,722.5631 C577.955,748.1411 582.0034,779.2763 582.8344,801.5593 " fill="none" id="eInnerState_StartCommRM1_Node_0-to-eInnerState_StartCommRM1_Node_1" style="stroke:#000000;stroke-width:1.0;"/><polygon fill="#000000" points="583.058,807.5551,586.7198,798.4123,582.8717,802.5586,578.7254,798.7104,583.058,807.5551" style="stroke:#000000;stroke-width:1.0;"/><text fill="#000000" font-family="Verdana" font-size="13" lengthAdjust="spacing" textLength="183" x="571" y="735.63">(fbRemoteManipulator.Busy)</text></g><!--link eInnerState_StartCommRM1_Node_1 to eInnerState_StartCommRM1_ERROR--><g id="link_eInnerState_StartCommRM1_Node_1_eInnerState_StartCommRM1_ERROR"><path d="M730.517,847.7381 C758.849,858.5181 775.94,875.3361 762,901.5631 C751.934,920.5031 735.079,911.5631 722,928.5631 C681.547,981.1461 712.6,1016.3351 673,1069.5631 C644.129,1108.3691 595.5989,1133.2235 577.5179,1141.6545 " fill="none" id="eInnerState_StartCommRM1_Node_1-to-eInnerState_StartCommRM1_ERROR" style="stroke:#000000;stroke-width:1.0;"/><polygon fill="#000000" points="572.08,1144.1901,581.9272,1144.0119,576.6116,1142.0771,578.5464,1136.7614,572.08,1144.1901" style="stroke:#000000;stroke-width:1.0;"/><text fill="#000000" font-family="Verdana" font-size="13" lengthAdjust="spacing" textLength="183" x="723" y="994.13">(fbRemoteManipulator.Busy)</text></g><!--link eInnerState_StartCommRM1_Node_0 to eInnerState_StartCommRM1_Node_2--><g id="link_eInnerState_StartCommRM1_Node_0_eInnerState_StartCommRM1_Node_2"><path d="M442.102,655.8911 C419.677,662.2681 360.73,682.2831 334,722.5631 C314.357,752.1641 315.8666,791.0474 318.0106,810.7394 " fill="none" id="eInnerState_StartCommRM1_Node_0-to-eInnerState_StartCommRM1_Node_2" style="stroke:#000000;stroke-width:1.0;"/><polygon fill="#000000" points="318.66,816.7041,321.6624,807.3241,318.1188,811.7335,313.7094,808.1899,318.66,816.7041" style="stroke:#000000;stroke-width:1.0;"/><text fill="#000000" font-family="Verdana" font-size="13" lengthAdjust="spacing" textLength="224" x="335" y="735.63">(NOT (fbRemoteManipulator.Busy))</text></g><!--link eInnerState_StartCommRM1_Node_2 to eInnerState_StartCommRM1_Node_3--><g id="link_eInnerState_StartCommRM1_Node_2_eInnerState_StartCommRM1_Node_3"><path d="M317.175,837.2691 C313.063,851.6071 307.043,880.6821 318,901.5631 C334.49,932.9871 362.6783,952.6162 391.0173,966.7702 " fill="none" id="eInnerState_StartCommRM1_Node_2-to-eInnerState_StartCommRM1_Node_3" style="stroke:#000000;stroke-width:1.0;"/><polygon fill="#000000" points="396.385,969.4511,390.1207,961.8512,391.9119,967.217,386.5461,969.0082,396.385,969.4511" style="stroke:#000000;stroke-width:1.0;"/><text fill="#000000" font-family="Verdana" font-size="13" lengthAdjust="spacing" textLength="191" x="319" y="897.63">(fbRemoteManipulator.bError)</text></g><!--link eInnerState_StartCommRM1_Node_3 to eInnerState_StartCommRM1_ERROR--><g id="link_eInnerState_StartCommRM1_Node_3_eInnerState_StartCommRM1_ERROR"><path d="M450.169,1009.6081 C456.165,1026.3821 466.36,1050.9691 480,1069.5631 C504.232,1102.5961 539.5226,1128.6907 554.8636,1139.3167 " fill="none" id="eInnerState_StartCommRM1_Node_3-to-eInnerState_StartCommRM1_ERROR" style="stroke:#000000;stroke-width:1.0;"/><polygon fill="#000000" points="559.796,1142.7331,554.6751,1134.3203,555.6857,1139.8861,550.1199,1140.8967,559.796,1142.7331" style="stroke:#000000;stroke-width:1.0;"/><text fill="#000000" font-family="Verdana" font-size="13" lengthAdjust="spacing" textLength="191" x="481" y="1065.63">(fbRemoteManipulator.bError)</text></g><!--link eInnerState_StartCommRM1 to eInnerState_StartCommRM2--><g id="link_eInnerState_StartCommRM1_eInnerState_StartCommRM2"><path d="M871.4459,499.3877 C923.3574,499.9628 992.7945,501.8188 1064.9483,506.8969 C1209.2557,517.0531 1364.43,540.0981 1412,591.5631 C1414.1963,593.9394 1413.3978,591.1755 1414.7299,594.0518 " fill="none" id="eInnerState_StartCommRM1-to-eInnerState_StartCommRM2" style="stroke:#000000;stroke-width:1.0;"/><polygon fill="#000000" points="1417.2513,599.4963,1417.0988,589.6486,1415.1501,594.9593,1409.8395,593.0106,1417.2513,599.4963" style="stroke:#000000;stroke-width:1.0;"/><text fill="#000000" font-family="Verdana" font-size="13" lengthAdjust="spacing" textLength="232" x="1373" y="560.63">(NOT (fbRemoteManipulator.bError))</text></g><!--link eInnerState_StartCommRM2_Node_0 to eInnerState_StartCommRM2_Node_1--><g id="link_eInnerState_StartCommRM2_Node_0_eInnerState_StartCommRM2_Node_1"><path d="M1051,839.8141 C1051,869.2621 1051,942.3431 1051,971.5371 " fill="none" id="eInnerState_StartCommRM2_Node_0-to-eInnerState_StartCommRM2_Node_1" style="stroke:#000000;stroke-width:1.0;"/><polygon fill="#000000" points="1051,977.5371,1055,968.5371,1051,972.5371,1047,968.5371,1051,977.5371" style="stroke:#000000;stroke-width:1.0;"/><text fill="#000000" font-family="Verdana" font-size="13" lengthAdjust="spacing" textLength="224" x="1052" y="897.63">(NOT (fbRemoteManipulator.Busy))</text></g><!--link eInnerState_StartCommRM2_Node_1 to eInnerState_StartCommRM2_Node_2--><g id="link_eInnerState_StartCommRM2_Node_1_eInnerState_StartCommRM2_Node_2"><path d="M1042.21,992.8631 C1021.73,998.7501 971.068,1016.5091 951,1052.5631 C934.745,1081.7671 962.618,1106.8262 991.476,1124.6732 " fill="none" id="eInnerState_StartCommRM2_Node_1-to-eInnerState_StartCommRM2_Node_2" style="stroke:#000000;stroke-width:1.0;"/><polygon fill="#000000" points="996.579,1127.8291,991.0285,1119.6933,992.3265,1125.1992,986.8206,1126.4973,996.579,1127.8291" style="stroke:#000000;stroke-width:1.0;"/><text fill="#000000" font-family="Verdana" font-size="13" lengthAdjust="spacing" textLength="191" x="952" y="1065.63">(fbRemoteManipulator.bError)</text></g><!--link eInnerState_StartCommRM2_Node_2 to eInnerState_StartCommRM2_ERROR--><g id="link_eInnerState_StartCommRM2_Node_2_eInnerState_StartCommRM2_ERROR"><path d="M1033,1168.0931 C1033,1207.8281 1033,1291.3411 1033,1313.7581 " fill="none" id="eInnerState_StartCommRM2_Node_2-to-eInnerState_StartCommRM2_ERROR" style="stroke:#000000;stroke-width:1.0;"/><polygon fill="#000000" points="1033,1319.7581,1037,1310.7581,1033,1314.7581,1029,1310.7581,1033,1319.7581" style="stroke:#000000;stroke-width:1.0;"/><text fill="#000000" font-family="Verdana" font-size="13" lengthAdjust="spacing" textLength="191" x="1034" y="1264.99">(fbRemoteManipulator.bError)</text></g><!--link eInnerState_StartCommRM2 to eInnerState_EnableArmMotors1--><g id="link_eInnerState_StartCommRM2_eInnerState_EnableArmMotors1"><path d="M1432.5757,654.8581 C1432.9179,654.8865 1433.2649,654.9153 1433.6167,654.9446 C1434.3202,655.0032 1435.0429,655.0637 1435.7845,655.1262 C1447.6491,656.1256 1464.331,657.6221 1484.3927,659.6663 C1524.5159,663.7547 1578.1581,670.0339 1633.8188,678.9095 C1745.14,696.6606 1864.535,724.7971 1900,766.5631 C1901.0475,767.7966 1901.9828,769.1006 1902.8157,770.4621 C1903.2321,771.1429 1903.6229,771.8381 1903.9894,772.546 C1904.1726,772.8999 1904.3497,773.2571 1904.5209,773.6172 C1904.6065,773.7973 1904.6906,773.9781 1904.7732,774.1596 C1904.8145,774.2504 1902.4143,768.8604 1902.4549,768.9515 " fill="none" id="eInnerState_StartCommRM2-to-eInnerState_EnableArmMotors1" style="stroke:#000000;stroke-width:1.0;"/><polygon fill="#000000" points="1904.8961,774.4324,1904.8882,764.5836,1902.8617,769.865,1897.5803,767.8385,1904.8961,774.4324" style="stroke:#000000;stroke-width:1.0;"/><text fill="#000000" font-family="Verdana" font-size="13" lengthAdjust="spacing" textLength="232" x="1864" y="735.63">(NOT (fbRemoteManipulator.bError))</text></g><!--link eInnerState_EnableArmMotors1_Node_0 to eInnerState_EnableArmMotors1_Node_1--><g id="link_eInnerState_EnableArmMotors1_Node_0_eInnerState_EnableArmMotors1_Node_1"><path d="M1608.03,994.7671 C1622.32,1003.6551 1654.92,1025.7591 1673,1052.5631 C1688.77,1075.9391 1696.198,1101.929 1700.408,1121.995 " fill="none" id="eInnerState_EnableArmMotors1_Node_0-to-eInnerState_EnableArmMotors1_Node_1" style="stroke:#000000;stroke-width:1.0;"/><polygon fill="#000000" points="1701.64,1127.8671,1703.7067,1118.2376,1700.6133,1122.9737,1695.8772,1119.8803,1701.64,1127.8671" style="stroke:#000000;stroke-width:1.0;"/><text fill="#000000" font-family="Verdana" font-size="13" lengthAdjust="spacing" textLength="128" x="1684" y="1065.63">(fbArmMotors.Busy)</text></g><!--link eInnerState_EnableArmMotors1_Node_1 to eInnerState_EnableArmMotors1_ERROR--><g id="link_eInnerState_EnableArmMotors1_Node_1_eInnerState_EnableArmMotors1_ERROR"><path d="M1781.17,1168.0111 C1825.21,1184.1191 1872,1212.3161 1872,1259.4231 C1872,1259.4231 1872,1259.4231 1872,1398.4231 C1872,1442.4161 1807.499,1456.4705 1786.049,1460.0315 " fill="none" id="eInnerState_EnableArmMotors1_Node_1-to-eInnerState_EnableArmMotors1_ERROR" style="stroke:#000000;stroke-width:1.0;"/><polygon fill="#000000" points="1780.13,1461.0141,1789.6636,1463.4862,1785.0625,1460.1953,1788.3534,1455.5942,1780.13,1461.0141" style="stroke:#000000;stroke-width:1.0;"/><text fill="#000000" font-family="Verdana" font-size="13" lengthAdjust="spacing" textLength="128" x="1873" y="1330.49">(fbArmMotors.Busy)</text></g><!--link eInnerState_EnableArmMotors1_Node_0 to eInnerState_EnableArmMotors1_Node_2--><g id="link_eInnerState_EnableArmMotors1_Node_0_eInnerState_EnableArmMotors1_Node_2"><path d="M1592.11,992.8661 C1571.37,998.7621 1519.9,1016.5371 1498,1052.5631 C1481.46,1079.7741 1485.4081,1114.0409 1488.8381,1131.8959 " fill="none" id="eInnerState_EnableArmMotors1_Node_0-to-eInnerState_EnableArmMotors1_Node_2" style="stroke:#000000;stroke-width:1.0;"/><polygon fill="#000000" points="1489.97,1137.7881,1492.2003,1128.1951,1489.0267,1132.8779,1484.3439,1129.7043,1489.97,1137.7881" style="stroke:#000000;stroke-width:1.0;"/><text fill="#000000" font-family="Verdana" font-size="13" lengthAdjust="spacing" textLength="169" x="1499" y="1065.63">(NOT (fbArmMotors.Busy))</text></g><!--link eInnerState_EnableArmMotors1_Node_2 to eInnerState_EnableArmMotors1_Node_3--><g id="link_eInnerState_EnableArmMotors1_Node_2_eInnerState_EnableArmMotors1_Node_3"><path d="M1490.92,1159.1841 C1489.14,1181.6291 1488.03,1235.7281 1514,1268.9231 C1527.03,1285.5731 1540.5959,1295.0367 1559.8959,1303.4117 " fill="none" id="eInnerState_EnableArmMotors1_Node_2-to-eInnerState_EnableArmMotors1_Node_3" style="stroke:#000000;stroke-width:1.0;"/><polygon fill="#000000" points="1565.4,1305.8001,1558.7361,1298.548,1560.8132,1303.8098,1555.5515,1305.8869,1565.4,1305.8001" style="stroke:#000000;stroke-width:1.0;"/><text fill="#000000" font-family="Verdana" font-size="13" lengthAdjust="spacing" textLength="136" x="1515" y="1264.99">(fbArmMotors.bError)</text></g><!--link eInnerState_EnableArmMotors1_Node_3 to eInnerState_EnableArmMotors1_ERROR--><g id="link_eInnerState_EnableArmMotors1_Node_3_eInnerState_EnableArmMotors1_ERROR"><path d="M1657.2,1345.9791 C1688.83,1377.3771 1745.9826,1434.1053 1764.3926,1452.3873 " fill="none" id="eInnerState_EnableArmMotors1_Node_3-to-eInnerState_EnableArmMotors1_ERROR" style="stroke:#000000;stroke-width:1.0;"/><polygon fill="#000000" points="1768.65,1456.6151,1765.0824,1447.4351,1765.1022,1453.0919,1759.4453,1453.1117,1768.65,1456.6151" style="stroke:#000000;stroke-width:1.0;"/><text fill="#000000" font-family="Verdana" font-size="13" lengthAdjust="spacing" textLength="136" x="1719" y="1401.99">(fbArmMotors.bError)</text></g><!--link eInnerState_EnableArmMotors1 to eInnerState_EnableArmMotors2--><g id="link_eInnerState_EnableArmMotors1_eInnerState_EnableArmMotors2"><path d="M2010.8529,833.3918 C2012.4267,833.4902 2014.0124,833.5905 2015.6096,833.6927 C2028.3873,834.5106 2041.9029,835.4524 2055.9578,836.5352 C2084.0677,838.7009 2114.335,841.431 2145.1725,844.8633 C2268.5225,858.5921 2400.995,883.5546 2441,928.5631 C2442.075,929.7726 2443.0345,931.0555 2443.8885,932.3986 C2444.3155,933.0702 2444.7162,933.7567 2445.0917,934.4567 C2445.2795,934.8067 2445.461,935.16 2445.6364,935.5165 C2445.7241,935.6947 2445.8102,935.8737 2445.8949,936.0535 C2445.9372,936.1434 2443.4692,930.7837 2443.5108,930.8739 " fill="none" id="eInnerState_EnableArmMotors1-to-eInnerState_EnableArmMotors2" style="stroke:#000000;stroke-width:1.0;"/><polygon fill="#000000" points="2446.0207,936.3237,2445.8891,926.4758,2443.9291,931.7822,2438.6226,929.8223,2446.0207,936.3237" style="stroke:#000000;stroke-width:1.0;"/><text fill="#000000" font-family="Verdana" font-size="13" lengthAdjust="spacing" textLength="177" x="2403" y="897.63">(NOT (fbArmMotors.bError))</text></g><!--link eInnerState_EnableArmMotors2_Node_0 to eInnerState_EnableArmMotors2_Node_1--><g id="link_eInnerState_EnableArmMotors2_Node_0_eInnerState_EnableArmMotors2_Node_1"><path d="M2163,1159.9331 C2163,1191.5401 2163,1276.3161 2163,1307.9181 " fill="none" id="eInnerState_EnableArmMotors2_Node_0-to-eInnerState_EnableArmMotors2_Node_1" style="stroke:#000000;stroke-width:1.0;"/><polygon fill="#000000" points="2163,1313.9181,2167,1304.9181,2163,1308.9181,2159,1304.9181,2163,1313.9181" style="stroke:#000000;stroke-width:1.0;"/><text fill="#000000" font-family="Verdana" font-size="13" lengthAdjust="spacing" textLength="169" x="2164" y="1264.99">(NOT (fbArmMotors.Busy))</text></g><!--link eInnerState_EnableArmMotors2_Node_1 to eInnerState_EnableArmMotors2_Node_2--><g id="link_eInnerState_EnableArmMotors2_Node_1_eInnerState_EnableArmMotors2_Node_2"><path d="M2155,1330.2991 C2132.54,1340.3001 2071.69,1371.2441 2090,1405.9231 C2098.37,1421.7771 2108.3132,1430.9249 2123.3032,1439.8409 " fill="none" id="eInnerState_EnableArmMotors2_Node_1-to-eInnerState_EnableArmMotors2_Node_2" style="stroke:#000000;stroke-width:1.0;"/><polygon fill="#000000" points="2128.46,1442.9081,2122.7697,1434.8695,2124.1627,1440.3521,2118.68,1441.7451,2128.46,1442.9081" style="stroke:#000000;stroke-width:1.0;"/><text fill="#000000" font-family="Verdana" font-size="13" lengthAdjust="spacing" textLength="136" x="2091" y="1401.99">(fbArmMotors.bError)</text></g><!--link eInnerState_EnableArmMotors2_Node_2 to eInnerState_EnableArmMotors2_ERROR--><g id="link_eInnerState_EnableArmMotors2_Node_2_eInnerState_EnableArmMotors2_ERROR"><path d="M2172,1482.9791 C2172,1514.0081 2172,1567.7941 2172,1585.7196 " fill="none" id="eInnerState_EnableArmMotors2_Node_2-to-eInnerState_EnableArmMotors2_ERROR" style="stroke:#000000;stroke-width:1.0;"/><polygon fill="#000000" points="2172,1591.7196,2176,1582.7196,2172,1586.7196,2168,1582.7196,2172,1591.7196" style="stroke:#000000;stroke-width:1.0;"/><text fill="#000000" font-family="Verdana" font-size="13" lengthAdjust="spacing" textLength="136" x="2173" y="1538.99">(fbArmMotors.bError)</text></g><!--link eInnerState_EnableArmMotors2 to eInnerState_Setup--><g id="link_eInnerState_EnableArmMotors2_eInnerState_Setup"><path d="M2461.2913,1030.3642 C2461.3984,1030.6258 2461.5058,1030.8882 2461.6135,1031.1514 C2462.0443,1032.2039 2462.48,1033.2684 2462.9202,1034.3437 C2463.8005,1036.4944 2464.6985,1038.6884 2465.6108,1040.9171 C2469.2598,1049.8321 2473.1362,1059.3021 2477.0125,1068.7716 C2480.8888,1078.2411 2484.7648,1087.7101 2488.4133,1096.6227 C2489.3254,1098.8509 2490.2233,1101.0443 2491.1034,1103.1942 C2491.2134,1103.463 2491.3231,1103.731 2491.4326,1103.9984 C2491.4873,1104.1321 2489.2689,1098.7129 2489.3235,1098.8462 " fill="none" id="eInnerState_EnableArmMotors2-to-eInnerState_Setup" style="stroke:#000000;stroke-width:1.0;"/><polygon fill="#000000" points="2491.5965,1104.3989,2491.8888,1094.5544,2489.7023,1099.7716,2484.4851,1097.5852,2491.5965,1104.3989" style="stroke:#000000;stroke-width:1.0;"/><text fill="#000000" font-family="Verdana" font-size="13" lengthAdjust="spacing" textLength="177" x="2478" y="1065.63">(NOT (fbArmMotors.bError))</text></g><!--SRC=[hLRRRfj047qsNx597X9NSbNMhLHPaIMI4DLgx4I0rLPLXS2CurMvQLb7YIB_Up74hYyB310UsJbxPlRCx9uJiO00IEmxB5JEaxyi93nAG3dtOIw8Y0XdZmj1FCPX9bWKAWlc0O4W5Y_4WsJ6MPpzFZ_9D-BWUHoIfEUlSOyS85G44pwGsolR0X-Y6BYpXX1JE0B83NCUkHCewPTaFmxZNZSBC0f3u3dgxEjdLvr_8QzAv_U7FwJN6-uksoCl9HmGqz8CI-aSmVFrion5rrz2kaqUSweRnhrnIfpaADpEbiZb9JmpyH2nK0o7v6m-xwTV4OKzYJomFwMWsI9YCnWED-bAyjq4RzCk2iZGwsq6vC9DbxdeAfsLB8TiyJeA0cEirYXt5rQtx3qijdmPw42zqxchFq4elZbXUXJymlnbMlhO7atiwKJ_-Q1VM_gDdI8ilLjUJxQzIfGEAdcwbtn1BjE9TdMdszQzdQLiMvhv7PD5d-oBBAFV5NjoRv6BkMj040aOEo6BbxuZ8lxHrJcFU1VH1hHP6z0MRK2Rj04zQWCKYOgHQosFVQkDxlIRRddHRneKghHbVG-LzD1nVT1uC8xIwAJEm1v2wwfrXCSgLWHyn-6LKnGCi3pu7OTOJd0uo4LfIDfa6rIpFMZpzg0jsuCsRG_KKCinxGTRlYyjLwvimD7AcI2MSPrxTnrVhf6KHqiDsbCTMvC36Z3zu4uyhLDI3gXaMXsRddApi6U1gXm5mdPa6yhkxgjbyb99eLPGvEMtOK0LGKjVeOodYpGULVvbKFhILP7qsvnN9KUvlq2-r5Ns1E5Xr3PoK4ndqHtTcnmLnMXEsyb1gyr30qcA_0VIgBoD-_-RN3A4HSXgYftpQi20Be9AtoHPNvNQ4epB6KZVFGn9l-bveJYgdKV5kuqnBKXtepQLWs8xQt_SwnqLnMfEcyiXkqSo2rIgWQAi_W40]--></g></svg>